<svg width="48" height="32" viewBox="0 0 48 32" fill="none" xmlns="http://www.w3.org/2000/svg"><rect width="48" height="32" rx="4" fill="#fff"/><path fill-rule="evenodd" clip-rule="evenodd" d="M28.575 14.294c-2.208 1.63-5.409 2.496-8.165 2.496-3.863 0-7.342-1.428-9.975-3.805-.206-.186-.022-.441.226-.297 2.84 1.653 6.353 2.648 9.98 2.648 2.448 0 5.138-.508 7.613-1.558.373-.158.686.246.32.516Z" fill="#F79C34"/><path fill-rule="evenodd" clip-rule="evenodd" d="M29.494 13.245c-.283-.361-1.867-.171-2.579-.086-.215.026-.249-.162-.055-.299 1.264-.887 3.335-.631 3.576-.334.242.3-.064 2.376-1.248 3.367-.182.152-.356.071-.275-.13.267-.666.863-2.156.58-2.518Z" fill="#F79C34"/><path fill-rule="evenodd" clip-rule="evenodd" d="M26.965 6.59v-.863a.213.213 0 0 1 .219-.218h3.866c.123 0 .223.089.223.217v.74c-.001.124-.106.286-.291.542l-2.003 2.86c.743-.018 1.53.094 2.205.473a.394.394 0 0 1 .205.337v.92c0 .127-.138.274-.285.198-1.19-.624-2.768-.692-4.084.007-.135.072-.275-.073-.275-.2v-.875c0-.14.003-.38.144-.592l2.32-3.329h-2.02a.215.215 0 0 1-.224-.218Zm-14.101 5.387h-1.177a.221.221 0 0 1-.21-.199V5.742c0-.12.102-.217.228-.217H12.8a.221.221 0 0 1 .214.202v.788h.022c.286-.762.823-1.118 1.548-1.118.735 0 1.197.356 1.526 1.118.285-.762.933-1.118 1.625-1.118.494 0 1.032.203 1.361.66.373.509.297 1.246.297 1.893l-.002 3.81c0 .12-.1.217-.226.217H17.99a.22.22 0 0 1-.211-.217v-3.2c0-.254.022-.889-.034-1.13-.087-.407-.35-.521-.69-.521a.78.78 0 0 0-.704.495c-.12.305-.11.813-.11 1.156v3.2c0 .12-.1.217-.226.217H14.84a.22.22 0 0 1-.211-.217l-.001-3.2c0-.673.11-1.664-.725-1.664-.845 0-.812.965-.812 1.664v3.2c0 .12-.102.217-.227.217ZM34.61 6.629c-.867 0-.921 1.181-.921 1.918 0 .737-.011 2.312.911 2.312.911 0 .955-1.27.955-2.045 0-.508-.022-1.118-.176-1.6-.132-.42-.395-.585-.769-.585Zm-.01-1.232c1.745 0 2.69 1.5 2.69 3.405 0 1.84-1.043 3.302-2.69 3.302-1.713 0-2.646-1.5-2.646-3.366 0-1.88.944-3.341 2.646-3.341Zm4.953 6.58h-1.172a.22.22 0 0 1-.21-.217l-.003-6.038a.223.223 0 0 1 .227-.197h1.09a.224.224 0 0 1 .21.168v.923h.022c.33-.825.79-1.219 1.602-1.219.527 0 1.043.19 1.373.711.307.483.307 1.296.307 1.88v3.799a.223.223 0 0 1-.225.19h-1.18a.222.222 0 0 1-.209-.19V8.51c0-.661.077-1.627-.735-1.627-.286 0-.55.19-.68.483-.166.368-.188.737-.188 1.144v3.25a.225.225 0 0 1-.229.217Zm-14.485-.015a.243.243 0 0 1-.278.027c-.39-.324-.46-.474-.674-.784-.645.658-1.103.855-1.939.855-.99 0-1.76-.61-1.76-1.833 0-.955.517-1.604 1.254-1.922.638-.28 1.53-.33 2.212-.407v-.153c0-.28.022-.611-.144-.853-.143-.217-.418-.306-.66-.306-.448 0-.847.23-.945.706-.02.106-.098.212-.204.217l-1.14-.124c-.096-.022-.203-.099-.176-.246.259-1.363 1.477-1.788 2.584-1.8h.087c.566.007 1.29.163 1.73.585.573.535.518 1.248.518 2.025V9.78c0 .551.229.793.444 1.09.075.107.092.234-.004.312-.24.202-.667.572-.902.781l-.003-.002Zm-1.185-2.868c0 .459.01.84-.22 1.248-.188.33-.485.534-.815.534-.45 0-.715-.343-.715-.852 0-1.002.899-1.184 1.75-1.184v.254ZM9.652 11.962a.244.244 0 0 1-.278.027c-.391-.324-.461-.474-.675-.784-.645.658-1.102.855-1.939.855-.99 0-1.76-.61-1.76-1.833 0-.955.517-1.604 1.254-1.922.638-.28 1.53-.33 2.212-.407v-.153c0-.28.022-.611-.143-.853-.143-.217-.419-.306-.66-.306-.45 0-.848.23-.946.706-.02.106-.097.212-.204.217l-1.14-.124c-.096-.022-.203-.099-.176-.246.259-1.363 1.477-1.788 2.584-1.8h.087c.567.007 1.29.163 1.731.585.572.535.517 1.248.517 2.025V9.78c0 .551.229.793.444 1.09.075.107.092.234-.004.312-.24.202-.667.572-.902.781l-.002-.002ZM8.466 9.094c0 .459.01.84-.22 1.248-.187.33-.484.534-.815.534-.45 0-.715-.343-.715-.852 0-1.002.899-1.184 1.75-1.184v.254Z" fill="#333E47"/><path d="M36.862 25.837v.444c0 .078.034.196.122.24.35.147.946.192 1.419.068.942-.23 1.36-1.555 1.674-2.387l2.428-6.25c.04-.104.052-.294-.153-.294h-.806c-.162 0-.231.104-.266.205l-1.693 4.923-1.774-4.923c-.037-.102-.103-.205-.266-.205h-.855c-.206 0-.194.19-.152.293l2.447 6.062a14.21 14.21 0 0 1-.401 1.029c-.137.313-.368.542-.69.609-.247.05-.595.015-.84-.02-.132-.007-.194.08-.194.206Z" fill="#333E47"/><path fill-rule="evenodd" clip-rule="evenodd" d="M25.013 26.497h-.808a.206.206 0 0 1-.205-.205v-8.418c0-.113.092-.205.205-.205h.619c.13 0 .219.094.235.205l.065.44c.58-.513 1.325-.843 2.036-.843 1.99 0 2.644 1.64 2.644 3.344 0 1.824-1.001 3.29-2.694 3.29-.713 0-1.38-.263-1.892-.72v2.907a.206.206 0 0 1-.205.205Zm3.518-5.76c0-1.204-.365-2.256-1.703-2.256-.513 0-1.128.2-1.61.57v3.445c.463.342 1.083.588 1.554.588.53 0 .881-.085 1.196-.395.42-.415.57-1.139.563-1.951Zm7.19 3.009a.206.206 0 0 1-.206.205h-.603a.235.235 0 0 1-.236-.205l-.06-.41c-.278.234-.618.44-.987.583-.71.276-1.527.322-2.22-.104-.501-.308-.767-.91-.767-1.53 0-.48.148-.956.476-1.301.437-.472 1.072-.704 1.837-.704.463 0 1.125.054 1.607.212v-.826c0-.84-.354-1.204-1.286-1.204-.713 0-1.259.108-2.017.343-.122.005-.193-.088-.193-.2v-.472c0-.113.097-.222.201-.255.542-.236 1.31-.384 2.126-.41 1.063 0 2.328.24 2.328 1.875v4.403Zm-1.16-2.453v1.246c-.203.196-.612.415-1.048.539-.454.128-.937.154-1.249-.057-.268-.165-.383-.498-.383-.83 0-.256.08-.521.255-.706.234-.252.682-.349 1.092-.349.26 0 .929.046 1.334.157Z" fill="#333E47"/></svg>