<svg width="48" height="32" viewBox="0 0 48 32" fill="none" xmlns="http://www.w3.org/2000/svg"><rect width="48" height="32" rx="4" fill="#FDEACE"/><path d="m29.008 6.527-10.329.036.313 18.91 10.329-.036-.313-18.91Z" fill="#FF5F00"/><path d="M19.359 16.056a11.966 11.966 0 0 1 4.357-9.48c-2.037-1.599-4.59-2.56-7.359-2.55C9.8 4.048 4.583 9.45 4.693 16.106c.111 6.656 5.506 12.022 12.065 12 2.768-.01 5.29-.989 7.273-2.6-2.771-2.165-4.608-5.604-4.672-9.45Z" fill="#EB001B"/><path d="M43.307 15.894c.11 6.655-5.106 12.058-11.665 12.08-2.768.01-5.322-.951-7.358-2.55 2.731-2.216 4.421-5.634 4.357-9.48a12.316 12.316 0 0 0-4.672-9.45 11.544 11.544 0 0 1 7.273-2.6c6.559-.022 11.954 5.378 12.065 12Z" fill="#F79E1B"/></svg>