<svg width="48" height="32" viewBox="0 0 48 32" fill="none" xmlns="http://www.w3.org/2000/svg"><rect width="48" height="32" rx="4" fill="#D4DEF7"/><path d="m35.423 9.87-.929 2.048h1.862l-.933-2.047Zm-10.717 1.27c.175-.084.278-.264.278-.489a.466.466 0 0 0-.284-.454c-.159-.083-.404-.092-.64-.092H22.4v1.14h1.64c.262 0 .481-.003.667-.105ZM3.415 9.87l-.919 2.048h1.842l-.923-2.047Zm42.751 13.117h-2.605v-1.102h2.595c.257 0 .437-.03.546-.127a.433.433 0 0 0 .16-.335.406.406 0 0 0-.166-.34c-.097-.078-.24-.114-.475-.114-1.267-.039-2.848.036-2.848-1.59 0-.745.52-1.529 1.936-1.529h2.688v-1.022H45.5c-.754 0-1.301.164-1.689.42v-.42h-3.694c-.59 0-1.283.133-1.611.42v-.42h-6.597v.42c-.525-.345-1.41-.42-1.82-.42h-4.35v.42c-.415-.366-1.34-.42-1.902-.42h-4.87l-1.113 1.097-1.044-1.097H9.536v7.169h7.137l1.148-1.115 1.081 1.114 4.4.004v-1.686h.432c.584.008 1.272-.013 1.88-.252v1.934h3.628v-1.868h.175c.223 0 .245.008.245.211v1.657h11.023c.7 0 1.432-.163 1.837-.459v.459h3.496c.728 0 1.438-.093 1.98-.33V22.33c-.328.436-.967.657-1.832.657Zm-22.374-1.693h-1.684v1.723h-2.623l-1.661-1.7-1.727 1.7h-5.345V17.88h5.427l1.66 1.684 1.717-1.684h4.311c1.071 0 2.274.27 2.274 1.693 0 1.427-1.17 1.721-2.35 1.721Zm8.096-.233c.19.251.218.485.223.938v1.018h-1.354v-.642c0-.31.032-.767-.218-1.006-.197-.184-.498-.228-.99-.228h-1.442v1.877H26.75V17.88h3.115c.683 0 1.18.027 1.623.242.426.234.694.555.694 1.14 0 .82-.6 1.239-.956 1.367.3.101.546.282.66.431Zm5.574-2.118h-3.16v.934h3.083v1.048h-3.083v1.022l3.16.005v1.065h-4.504V17.88h4.504v1.063Zm3.467 4.074h-2.628v-1.101h2.618c.256 0 .437-.031.551-.128a.438.438 0 0 0 .16-.334.426.426 0 0 0-.165-.34c-.104-.079-.246-.114-.48-.114-1.263-.04-2.843.035-2.843-1.59 0-.745.515-1.53 1.93-1.53h2.704v1.094h-2.475c-.245 0-.405.008-.54.093-.148.083-.203.206-.203.37 0 .193.125.325.295.382.142.045.295.058.525.058l.727.018c.732.016 1.235.131 1.54.413.263.247.404.56.404 1.088 0 1.105-.759 1.621-2.12 1.621Zm-10.465-3.991c-.163-.088-.404-.093-.644-.093h-1.662v1.154h1.64c.262 0 .486-.009.666-.106a.542.542 0 0 0 .28-.493.482.482 0 0 0-.28-.462Zm15.076-.093c-.245 0-.408.008-.546.093-.142.083-.197.206-.197.37 0 .193.12.325.295.382.143.045.296.058.52.058l.732.018c.738.016 1.23.132 1.53.413.055.04.088.084.126.128v-1.462h-2.46Zm-21.702 0H22.08v1.308h1.744c.518 0 .84-.234.84-.678 0-.45-.337-.63-.825-.63Zm-11.742 0v.934h2.962v1.048h-2.962v1.022h3.318l1.541-1.507-1.476-1.497h-3.383Zm8.663 3.592v-4.118l-2.072 2.026 2.072 2.092Zm-8.55-8.247v.885h11.274l-.006-1.873h.219c.152.005.197.018.197.247v1.626h5.83v-.436c.471.229 1.202.436 2.165.436h2.453l.525-1.141h1.164l.513 1.14h4.727V14.08l.716 1.084h3.788V8h-3.749v.846L41.5 8h-3.846v.846L37.17 8h-5.196c-.87 0-1.634.11-2.251.418V8h-3.586v.418C25.745 8.101 25.209 8 24.614 8h-13.1l-.879 1.85L9.732 8H5.606v.846L5.153 8H1.634L0 11.406v2.724l2.416-5.136h2.005l2.295 4.863V8.994H8.92l1.765 3.484 1.623-3.484h2.246v5.136H13.17l-.005-4.023-1.956 4.023h-1.185l-1.962-4.026v4.026H5.317L4.8 12.984H1.99l-.523 1.146H0v1.033h2.306l.52-1.14h1.163l.519 1.14h4.536v-.872l.405.876h2.355l.405-.89Zm17.765-4.685c.436-.41 1.12-.6 2.05-.6h1.305v1.101H32.05c-.492 0-.77.067-1.038.305-.23.216-.388.624-.388 1.163 0 .55.12.947.371 1.206.208.203.586.265.94.265h.607l1.902-4.04h2.021l2.285 4.858V8.994h2.055l2.372 3.577V8.994h1.382v5.136h-1.912l-2.558-3.855v3.855H37.34l-.525-1.146h-2.803l-.51 1.146h-1.579c-.656 0-1.486-.132-1.956-.569-.475-.435-.721-1.026-.721-1.96 0-.762.147-1.458.727-2.008Zm-2.776-.6h1.377v5.137h-1.377V8.994Zm-6.207 0h3.104c.689 0 1.197.017 1.634.247.426.23.682.564.682 1.137 0 .819-.6 1.242-.95 1.369.295.102.547.283.667.432.19.256.224.484.224.943v1.008H24.99l-.005-.647c0-.31.032-.754-.213-1-.197-.181-.498-.22-.984-.22H22.34v1.868h-1.349V8.994Zm-5.44 0h4.508v1.07h-3.158v.926h3.082v1.053h-3.082v1.025h3.158v1.063h-4.508V8.994Z" fill="#2557D6"/></svg>