<svg width="48" height="32" viewBox="0 0 48 32" fill="none" xmlns="http://www.w3.org/2000/svg"><rect width="48" height="32" rx="4" fill="#FCE0CF"/><path d="M28.58 15.982a3.321 3.321 0 0 0-.967-2.37 3.32 3.32 0 0 0-2.375-.966h-.012A3.332 3.332 0 0 0 21.87 16a3.355 3.355 0 0 0 3.355 3.355A3.332 3.332 0 0 0 28.58 16v-.018Z" fill="#F26E21"/><path d="M21.247 17.42c-.501.501-.964.697-1.462.708-1.215-.01-2.108-.91-2.108-2.192 0-.646.245-1.175.632-1.627a1.97 1.97 0 0 1 1.368-.567c.581 0 1.033.193 1.549.71v-1.484c-.516-.258-.968-.387-1.549-.387-.82.058-1.593.39-2.186.91-.17.154-.335.324-.474.518A3.252 3.252 0 0 0 16.322 16c0 1.871 1.485 3.29 3.355 3.29h.065c.516 0 .968-.128 1.548-.386l-.043-1.485c-.021.022.022.042 0 .063v-.063Zm11.569-3.915-1.461 3.592-1.678-4.259h-1.354l2.645 6.517h.71l2.774-6.517h-1.355l-.281.667Zm2.152 2.172v3.484h3.548V18.13h-2.258v-1.741h2.194V15.29h-2.194v-1.354h2.258v-1.098h-3.548v2.84ZM5.807 12.838H4v6.323h1.807c.967 0 1.677-.258 2.257-.71a3.19 3.19 0 0 0 1.162-2.45c0-1.872-1.355-3.163-3.42-3.163Zm1.483 4.775c-.387.322-.903.516-1.677.516h-.387v-4.194h.322c.775 0 1.29.13 1.678.516.452.387.71.968.71 1.549a1.93 1.93 0 0 1-.646 1.613Zm3.743-4.775H9.807v6.323h1.226v-6.323Zm3.097 2.452c-.775-.258-.969-.451-.969-.774 0-.387.388-.71.904-.71.387 0 .71.13 1.032.517l.645-.839a2.81 2.81 0 0 0-1.87-.71c-1.098 0-2.001.775-2.001 1.807 0 .903.387 1.29 1.548 1.742.517.193.71.258.84.387a.71.71 0 0 1 .386.645c0 .516-.386.903-.967.903a1.504 1.504 0 0 1-1.355-.839l-.775.774c.581.84 1.29 1.226 2.194 1.226 1.29 0 2.193-.838 2.193-2.064 0-1.097-.386-1.549-1.806-2.065ZM42 16.516c.968-.193 1.484-.839 1.484-1.806 0-1.161-.839-1.872-2.258-1.872h-1.871v6.323h1.226v-2.516h.193l1.742 2.516H44l-2-2.645Zm-1.032-.774h-.387v-1.936h.387c.774 0 1.226.323 1.226.968s-.452.968-1.226.968Z" fill="#2B2B2B"/></svg>