<svg width="48" height="32" viewBox="0 0 48 32" fill="none" xmlns="http://www.w3.org/2000/svg"><rect width="48" height="32" rx="4" fill="#CCEAFF"/><path d="M39.576 23.154A4.845 4.845 0 0 1 34.731 28H8.424V8.846A4.846 4.846 0 0 1 13.27 4h26.306v19.154Z" fill="#fff"/><path d="M31 16.42c.751.017 1.507-.033 2.255.026.758.141.94 1.289.268 1.664-.46.248-1.006.093-1.504.136H31V16.42Zm2.69-2.067c.167.59-.401 1.119-.969 1.037H31c.012-.555-.024-1.158.017-1.685.69.02 1.386-.04 2.071.031a.82.82 0 0 1 .602.617Zm4.142-8.738c.032 1.125.005 2.31.014 3.458-.002 4.668.005 9.336-.003 14.004-.03 1.75-1.581 3.27-3.318 3.304-1.74.008-3.479.002-5.218.003v-7.056c1.895-.01 3.791.02 5.685-.015.879-.055 1.841-.635 1.882-1.602.104-.971-.812-1.643-1.681-1.75-.334-.008-.325-.097 0-.135.829-.18 1.48-1.038 1.236-1.897-.208-.904-1.207-1.254-2.038-1.252-1.694-.012-3.389-.002-5.083-.005.01-1.318-.023-2.636.018-3.953.134-1.718 1.723-3.134 3.436-3.104h5.07Z" fill="url(#a)"/><path d="M10.159 8.897c.043-1.747 1.6-3.254 3.335-3.28 1.733-.005 3.466 0 5.198-.002-.005 5.844.01 11.688-.007 17.532-.067 1.725-1.607 3.204-3.323 3.235-1.736.006-3.472 0-5.208.002V19.09c1.687.398 3.455.568 5.175.303 1.028-.165 2.153-.67 2.501-1.737.256-.912.112-1.872.15-2.81v-2.174h-2.977c-.013 1.438.028 2.88-.021 4.316-.08.883-.955 1.444-1.788 1.414-1.033.011-3.08-.748-3.08-.748-.005-2.695.03-6.07.045-8.757Z" fill="url(#b)"/><path d="M19.803 13.55c-.157.032-.032-.535-.072-.75.01-1.36-.022-2.72.018-4.08.134-1.725 1.736-3.145 3.456-3.105h5.064c-.004 5.844.01 11.689-.007 17.532-.067 1.726-1.607 3.205-3.323 3.235-1.736.007-3.472.001-5.208.003v-7.993c1.186.973 2.797 1.125 4.274 1.127 1.114 0 2.22-.172 3.302-.429v-1.464c-1.219.607-2.651.993-4.002.644-.942-.234-1.627-1.145-1.611-2.118-.11-1.011.483-2.079 1.477-2.38 1.234-.386 2.579-.09 3.736.412.247.13.5.29.4-.123V12.91c-1.934-.46-3.993-.63-5.937-.13-.562.16-1.11.4-1.567.77Z" fill="url(#c)"/><defs><linearGradient id="a" x1="29.249" y1="15.556" x2="37.792" y2="15.556" gradientUnits="userSpaceOnUse"><stop stop-color="#007B40"/><stop offset="1" stop-color="#55B330"/></linearGradient><linearGradient id="b" x1="9.973" y1="16.199" x2="18.552" y2="16.199" gradientUnits="userSpaceOnUse"><stop stop-color="#1D2970"/><stop offset="1" stop-color="#006DBA"/></linearGradient><linearGradient id="c" x1="19.718" y1="15.757" x2="28.268" y2="15.757" gradientUnits="userSpaceOnUse"><stop stop-color="#6E2B2F"/><stop offset="1" stop-color="#E30138"/></linearGradient></defs></svg>