<svg width="48" height="32" viewBox="0 0 48 32" fill="none" xmlns="http://www.w3.org/2000/svg"><rect width="48" height="32" rx="4" fill="#D8E3F3"/><path d="M41.31 10.035h-2.515c-.76 0-1.345.234-1.696.994l-4.795 10.936h3.392s.585-1.462.702-1.813h4.152c.117.41.409 1.754.409 1.754H44l-2.69-11.871Zm-3.977 7.66c.293-.7 1.287-3.332 1.287-3.332 0 .058.292-.702.41-1.112l.233 1.053s.643 2.865.76 3.45h-2.69v-.058Zm-4.795.352c0 2.456-2.222 4.093-5.672 4.093-1.462 0-2.866-.292-3.626-.643l.468-2.69.409.176c1.053.467 1.754.643 3.04.643.936 0 1.93-.351 1.93-1.17 0-.526-.409-.877-1.695-1.462-1.228-.585-2.866-1.52-2.866-3.216 0-2.34 2.281-3.918 5.497-3.918 1.228 0 2.281.234 2.924.526l-.468 2.573-.233-.234a6.284 6.284 0 0 0-2.457-.468c-1.228.059-1.812.585-1.812 1.053 0 .526.701.936 1.813 1.462 1.87.877 2.748 1.871 2.748 3.275Z" fill="#3362AB"/><path d="m4 10.152.058-.234h5.03c.701 0 1.228.234 1.403.994l1.111 5.263c-1.11-2.807-3.684-5.087-7.602-6.023Z" fill="#F9B50B"/><path d="m18.678 10.035-5.087 11.871h-3.45l-2.925-9.941c2.106 1.345 3.86 3.45 4.503 4.912l.351 1.228 3.158-8.128h3.45v.058Zm1.345-.058h3.217l-2.047 11.93h-3.216l2.046-11.93Z" fill="#3362AB"/></svg>