<svg width="1027" height="270" viewBox="0 0 1027 270" fill="none" xmlns="http://www.w3.org/2000/svg"><mask id="a" maskUnits="userSpaceOnUse" x="-.457" y="16.699" width="224.716" height="227.948" fill="#000"><path fill="#fff" d="M-.457 16.699h224.716v227.948H-.457z"/><path d="M136.884 202.646s-68.23-5.405-86.333-54.184c-9.634-25.959 22.64-48.189 22.64-48.189s-11.486 0-26.465-8.083c-7.352-3.966-15.07-15.321-15.07-15.321s11.422-15.06 41.534-11.273c17.207 2.164 29.376 21.637 29.376 21.637s4.849-32.723 25.082-37.043c22.814-4.87 38.396 0 38.396 0s-4.173 15.406-14.553 26.679c-7.578 8.23-11.877 9.967-13.646 10.305 6.431-.294 42.941-.386 43.187 35.437.4 58.143-44.148 80.035-44.148 80.035Z"/></mask><path d="m137.845 87.174 2.065 10.804-2.568-21.792.503 10.988Zm-.961.059-.976-10.957-1.336 21.711 2.312-10.754Zm.458-11.047a42.934 42.934 0 0 0-1.403.087l-.016.002h-.013l-.001.001.975 10.957.974 10.956h-.003l-.003.001h-.006l-.01.002h-.016l-.008.002.07-.006c.084-.005.242-.015.466-.026l-1.006-21.977Zm-.458 11.047c-2.312 10.754-2.308 10.755-2.303 10.756l.008.002.018.004.035.007a4.284 4.284 0 0 0 .212.042 10.943 10.943 0 0 0 .898.133c.416.045.851.07 1.303.073a14.71 14.71 0 0 0 2.855-.272l-4.129-21.608a7.293 7.293 0 0 1 1.403-.12 9.265 9.265 0 0 1 1.468.126 11.094 11.094 0 0 1 .474.088l.034.007a1.15 1.15 0 0 1 .026.005c.005.001.009.002-2.302 10.757Zm-86.333 61.229-20.625 7.655 20.625-7.655Zm86.333 54.184-1.738 21.931 6.02.477 5.42-2.664-9.702-19.744Zm44.148-80.035 22-.151-22 .151ZM73.19 100.273l12.48 18.118 58.242-40.118H73.19v22Zm64.655-13.099-4.129-21.609 5.135 43.586-1.006-21.977ZM31.655 76.869 14.128 63.573 4.576 76.166l8.885 13.071 18.195-12.368Zm15.07 15.321 10.448-19.36-10.447 19.36Zm55.841-4.957L83.909 98.89l31.661 50.666 8.758-59.1-21.762-3.224ZM73.19 65.596l-2.745 21.828 2.745-21.828Zm92.854-15.406 21.235 5.753 5.536-20.435-20.207-6.316-6.564 20.998Zm-38.396 0-4.594-21.515 4.594 21.515Zm23.843 26.679 16.185 14.902-16.185-14.902ZM29.926 156.117c12.263 33.043 40.886 49.859 62.666 58.256 11.208 4.321 21.641 6.835 29.242 8.279 3.827.727 7.005 1.196 9.292 1.488a106.669 106.669 0 0 0 3.581.399l.27.024.097.008.039.003.018.002c.008 0 .015.001 1.753-21.93 1.737-21.932 1.744-21.931 1.751-21.931a.045.045 0 0 0 .012.001l.021.002.023.002-.024-.002a70.953 70.953 0 0 1-1.96-.222 112.841 112.841 0 0 1-6.661-1.071c-5.758-1.093-13.514-2.979-21.626-6.107-16.86-6.5-31.404-16.775-37.244-32.51l-41.25 15.309Zm106.958 46.529c9.702 19.744 9.713 19.739 9.723 19.734l.022-.011a1.99 1.99 0 0 0 .047-.023l.107-.053.263-.134a64.809 64.809 0 0 0 2.86-1.578 90.933 90.933 0 0 0 6.668-4.326c5.303-3.765 12.232-9.455 19.13-17.381 14.001-16.09 27.57-41.128 27.328-76.414l-43.999.303c.157 22.856-8.348 37.835-16.521 47.227-4.19 4.814-8.373 8.232-11.41 10.388a46.853 46.853 0 0 1-3.414 2.224c-.356.209-.591.336-.683.386-.046.024-.057.029-.028.015l.072-.037.058-.029a1.09 1.09 0 0 0 .035-.017l.019-.009c.01-.005.02-.01 9.723 19.735ZM73.19 100.273C60.71 82.155 60.704 82.16 60.698 82.163l-.013.01a6.204 6.204 0 0 0-.096.067 41.059 41.059 0 0 0-.647.46c-.376.271-.87.635-1.46 1.085a95.699 95.699 0 0 0-4.586 3.736c-3.596 3.114-8.425 7.733-12.987 13.584-8.564 10.982-19.793 31.274-10.983 55.012l41.25-15.309c-.824-2.221-.734-6.024 4.43-12.646 2.302-2.952 4.94-5.513 7.094-7.379a51.72 51.72 0 0 1 2.462-2.01c.274-.208.464-.348.556-.414l.058-.042-.031.022-.032.022-.02.014a.107.107 0 0 1-.011.008c-.006.004-.012.008-12.492-18.11Zm129.842 22.187c-.089-12.882-3.518-24.11-9.993-33.254-6.366-8.99-14.675-14.56-22.362-17.968-14.697-6.518-29.582-6.236-33.837-6.041l2.011 43.954c2.174-.099 8.76-.01 13.988 2.309 2.275 1.009 3.542 2.115 4.291 3.174.642.905 1.868 3.099 1.903 8.129l43.999-.303ZM31.655 76.869c-18.194 12.368-18.192 12.37-18.19 12.373l.004.005.007.012.018.027.045.065a60.353 60.353 0 0 0 .51.73 105.83 105.83 0 0 0 5.657 7.25c3.104 3.634 9.08 10.178 16.573 14.221l20.894-38.723c.14.076-1.418-1.04-4.012-4.077a61.816 61.816 0 0 1-3.207-4.104 25.752 25.752 0 0 1-.11-.157l.002.005c.002.002.004.005-18.19 12.373Zm4.624 34.683c9.568 5.163 18.203 7.841 24.713 9.228a71.932 71.932 0 0 0 8.06 1.265c1.036.1 1.91.157 2.605.189a40.249 40.249 0 0 0 1.403.039h.115c.008 0 .015 0 .015-22s.008-22 .015-22h.044a9.485 9.485 0 0 1 .303.004c.08.001.122.003.126.004.008 0-.132-.006-.406-.033a28.286 28.286 0 0 1-3.114-.503c-2.977-.634-7.574-1.996-12.985-4.916l-20.894 38.723Zm66.287-24.32c18.656-11.658 18.653-11.663 18.65-11.669l-.008-.011a.203.203 0 0 0-.015-.024l-.034-.054-.082-.13-.223-.345a58.621 58.621 0 0 0-.674-1.01 78.988 78.988 0 0 0-2.253-3.124 87.777 87.777 0 0 0-8.122-9.277c-6.495-6.427-18.14-15.842-33.87-17.82l-5.49 43.656c1.478.186 4.52 1.59 8.411 5.44a43.754 43.754 0 0 1 4.008 4.583 34.058 34.058 0 0 1 1.131 1.581l-.012-.018a5.905 5.905 0 0 1-.029-.047l-.02-.032-.013-.02-.006-.01c-.003-.004-.006-.01 18.651-11.668ZM75.935 43.769c-19.234-2.419-33.993 1.072-44.599 6.345-5.186 2.58-9.12 5.455-11.936 7.926a44.172 44.172 0 0 0-3.403 3.314 35.043 35.043 0 0 0-1.537 1.792 26.157 26.157 0 0 0-.314.404c-.01.012-.019.024 17.51 13.32 17.527 13.295 17.518 13.307 17.51 13.319l-.018.023-.035.046a16.643 16.643 0 0 1-.411.516 9.158 9.158 0 0 1-.289.333c-.127.138-.127.124.009.005.267-.234 1.07-.886 2.504-1.6 2.633-1.309 8.642-3.454 19.52-2.087l5.489-43.656Zm90.109 6.422c6.564-20.998 6.556-21 6.549-21.002l-.015-.005a1.73 1.73 0 0 0-.031-.01l-.067-.02-.151-.046a47.045 47.045 0 0 0-1.408-.394 64.54 64.54 0 0 0-3.159-.74c-2.575-.54-6.083-1.132-10.384-1.52-8.598-.776-20.443-.741-34.324 2.222l9.187 43.03c8.933-1.907 16.287-1.872 21.183-1.43 2.447.22 4.26.541 5.321.763.528.111.865.196.994.23l.034.009-.104-.03-.084-.026-.049-.016-.027-.008a.33.33 0 0 1-.014-.004c-.007-.002-.014-.005 6.549-21.003Zm-42.99-21.515C101.8 33.213 91.609 51.617 87.302 61.657 84.82 67.44 83.239 72.882 82.275 76.8a95.668 95.668 0 0 0-1.073 4.9 71.875 71.875 0 0 0-.38 2.183l-.01.069-.005.03a.89.89 0 0 1-.002.013c0 .006-.002.013 21.761 3.238 21.762 3.225 21.761 3.23 21.76 3.237a1.015 1.015 0 0 1-.005.032l-.005.033-.005.034.01-.059c.015-.092.049-.288.104-.574.109-.574.297-1.487.578-2.632.579-2.352 1.473-5.36 2.734-8.299 3.175-7.4 5.525-7.517 4.504-7.3l-9.187-43.03Zm18.92 80.108c8.608-1.645 16.889-7.441 25.702-17.012l-32.369-29.804c-2.961 3.216-4.637 4.451-5.076 4.746-.436.292.781-.631 3.485-1.148l8.258 43.218Zm25.702-17.012c7.407-8.045 12.209-17.064 15.084-23.525a100.914 100.914 0 0 0 3.289-8.362 77.565 77.565 0 0 0 1.096-3.461l.08-.286.031-.109a1.54 1.54 0 0 1 .02-.076c.002-.004.003-.01-21.232-5.762-21.234-5.752-21.233-5.757-21.232-5.761a.02.02 0 0 0 .002-.009l.005-.016.008-.03.011-.041.007-.024-.054.182c-.066.22-.192.621-.38 1.172a57.39 57.39 0 0 1-1.851 4.695c-1.807 4.061-4.281 8.381-7.253 11.61l32.369 29.803Z" fill="#F93" mask="url(#a)"/><path d="M116.244 103.271s13.213 7.988 18.719 26.957c5.505 18.97 4.404 34.944 4.404 34.944" stroke="#F93" stroke-width="15" stroke-linecap="round"/><path d="M226.64 64.172c5.488-1.045 11.499-1.83 18.032-2.352a202.81 202.81 0 0 1 19.796-.98c6.795 0 13.589.588 20.384 1.764 6.925 1.045 13.132 3.267 18.62 6.664 5.488 3.267 9.931 7.905 13.328 13.916 3.528 5.88 5.292 13.59 5.292 23.128 0 8.624-1.503 15.941-4.508 21.952-3.005 5.88-6.991 10.715-11.956 14.504-4.965 3.789-10.649 6.533-17.052 8.232-6.272 1.699-12.805 2.548-19.6 2.548h-7.644l-4.704-.392c-1.437-.131-2.483-.261-3.136-.392V200H226.64V64.172Zm39.984 19.796c-2.613 0-5.096.13-7.448.392-2.352.13-4.247.327-5.684.588v44.492c.523.131 1.307.261 2.352.392s2.156.261 3.332.392h5.88c3.528 0 6.991-.327 10.388-.98 3.528-.653 6.664-1.829 9.408-3.528 2.744-1.829 4.9-4.312 6.468-7.448 1.699-3.136 2.548-7.252 2.548-12.348 0-4.312-.784-7.84-2.352-10.584-1.568-2.875-3.659-5.161-6.272-6.86-2.483-1.699-5.357-2.875-8.624-3.528a50.852 50.852 0 0 0-9.996-.98Zm142.91 107.604c-3.92 3.136-9.277 5.815-16.072 8.036-6.664 2.091-13.785 3.136-21.364 3.136-15.811 0-27.375-4.573-34.692-13.72-7.317-9.277-10.976-21.952-10.976-38.024 0-17.248 4.116-30.184 12.348-38.808 8.232-8.624 19.796-12.936 34.692-12.936 4.965 0 9.8.653 14.504 1.96 4.704 1.307 8.885 3.463 12.544 6.468 3.659 3.005 6.599 7.056 8.82 12.152 2.221 5.096 3.332 11.433 3.332 19.012 0 2.744-.196 5.684-.588 8.82a92.736 92.736 0 0 1-1.372 9.8h-58.8c.392 8.232 2.483 14.439 6.272 18.62 3.92 4.181 10.192 6.272 18.816 6.272 5.357 0 10.127-.784 14.308-2.352 4.312-1.699 7.579-3.397 9.8-5.096l8.428 16.66Zm-36.456-71.932c-6.664 0-11.629 2.025-14.896 6.076-3.136 3.92-5.031 9.212-5.684 15.876h36.456c.523-7.056-.588-12.479-3.332-16.268-2.613-3.789-6.795-5.684-12.544-5.684Zm56.999-11.956c5.227-2.352 11.434-4.181 18.62-5.488 7.187-1.437 14.7-2.156 22.54-2.156 6.795 0 12.479.849 17.052 2.548 4.574 1.568 8.167 3.855 10.78 6.86 2.744 3.005 4.639 6.599 5.684 10.78 1.176 4.181 1.764 8.885 1.764 14.112 0 5.749-.196 11.564-.588 17.444a381.297 381.297 0 0 0-.784 17.052c0 5.619.196 11.107.588 16.464.392 5.227 1.372 10.192 2.94 14.896h-20.776l-4.116-13.524h-.98c-2.613 4.051-6.272 7.579-10.976 10.584-4.573 2.875-10.518 4.312-17.836 4.312-4.573 0-8.689-.653-12.348-1.96-3.658-1.437-6.794-3.397-9.408-5.88a28.16 28.16 0 0 1-6.076-9.016c-1.437-3.528-2.156-7.448-2.156-11.76 0-6.011 1.307-11.041 3.92-15.092 2.744-4.181 6.599-7.513 11.564-9.996 5.096-2.613 11.107-4.377 18.032-5.292 7.056-1.045 14.896-1.372 23.52-.98.915-7.317.392-12.544-1.568-15.68-1.96-3.267-6.337-4.9-13.132-4.9-5.096 0-10.518.523-16.268 1.568-5.618 1.045-10.257 2.417-13.916 4.116l-6.076-19.012Zm32.34 72.912c5.096 0 9.147-1.111 12.152-3.332 3.006-2.352 5.227-4.835 6.664-7.448v-12.74c-4.05-.392-7.97-.457-11.76-.196-3.658.261-6.925.849-9.8 1.764-2.874.915-5.161 2.221-6.86 3.92-1.698 1.699-2.548 3.855-2.548 6.468 0 3.659 1.046 6.533 3.136 8.624 2.222 1.96 5.227 2.94 9.016 2.94Zm134.867 13.328c-3.92 2.875-8.69 5.031-14.308 6.468-5.488 1.568-11.172 2.352-17.052 2.352-7.84 0-14.504-1.241-19.992-3.724-5.358-2.483-9.735-5.945-13.132-10.388-3.398-4.573-5.88-10.061-7.448-16.464-1.438-6.403-2.156-13.459-2.156-21.168 0-16.595 3.724-29.335 11.172-38.22 7.448-9.016 18.293-13.524 32.536-13.524 7.186 0 12.936.588 17.248 1.764 4.442 1.176 8.428 2.679 11.956 4.508l-6.076 20.776c-3.006-1.437-6.011-2.548-9.016-3.332-2.875-.784-6.207-1.176-9.996-1.176-7.056 0-12.414 2.352-16.072 7.056-3.659 4.573-5.488 11.956-5.488 22.148 0 4.181.457 8.036 1.372 11.564.914 3.528 2.286 6.599 4.116 9.212 1.829 2.613 4.181 4.704 7.056 6.272 3.005 1.437 6.468 2.156 10.388 2.156 4.312 0 7.97-.523 10.976-1.568 3.005-1.176 5.684-2.548 8.036-4.116l5.88 19.404ZM672.669 200v-55.664c0-7.971-1.111-13.72-3.332-17.248-2.222-3.528-6.272-5.292-12.152-5.292-4.312 0-8.298 1.503-11.956 4.508-3.528 2.875-5.88 6.599-7.056 11.172V200h-25.48V62.8h25.48v50.176h.784c3.136-4.181 6.99-7.513 11.564-9.996 4.573-2.483 10.388-3.724 17.444-3.724 4.965 0 9.342.653 13.132 1.96 3.789 1.307 6.925 3.463 9.408 6.468 2.613 3.005 4.508 7.121 5.684 12.348 1.306 5.096 1.96 11.433 1.96 19.012V200h-25.48Zm47.416-135.828c5.488-1.045 11.499-1.83 18.032-2.352a202.81 202.81 0 0 1 19.796-.98c6.795 0 13.59.588 20.384 1.764 6.926 1.045 13.132 3.267 18.62 6.664 5.488 3.267 9.931 7.905 13.328 13.916 3.528 5.88 5.292 13.59 5.292 23.128 0 8.624-1.502 15.941-4.508 21.952-3.005 5.88-6.99 10.715-11.956 14.504-4.965 3.789-10.649 6.533-17.052 8.232-6.272 1.699-12.805 2.548-19.6 2.548h-7.644l-4.704-.392c-1.437-.131-2.482-.261-3.136-.392V200h-26.852V64.172Zm39.984 19.796c-2.613 0-5.096.13-7.448.392-2.352.13-4.246.327-5.684.588v44.492c.523.131 1.307.261 2.352.392 1.046.131 2.156.261 3.332.392h5.88c3.528 0 6.991-.327 10.388-.98 3.528-.653 6.664-1.829 9.408-3.528 2.744-1.829 4.9-4.312 6.468-7.448 1.699-3.136 2.548-7.252 2.548-12.348 0-4.312-.784-7.84-2.352-10.584-1.568-2.875-3.658-5.161-6.272-6.86-2.482-1.699-5.357-2.875-8.624-3.528a50.837 50.837 0 0 0-9.996-.98Zm65.262 23.716c5.227-2.352 11.434-4.181 18.62-5.488 7.187-1.437 14.7-2.156 22.54-2.156 6.795 0 12.479.849 17.052 2.548 4.574 1.568 8.167 3.855 10.78 6.86 2.744 3.005 4.639 6.599 5.684 10.78 1.176 4.181 1.764 8.885 1.764 14.112 0 5.749-.196 11.564-.588 17.444a381.297 381.297 0 0 0-.784 17.052c0 5.619.196 11.107.588 16.464.392 5.227 1.372 10.192 2.94 14.896h-20.776l-4.116-13.524h-.98c-2.613 4.051-6.272 7.579-10.976 10.584-4.573 2.875-10.518 4.312-17.836 4.312-4.573 0-8.689-.653-12.348-1.96-3.658-1.437-6.794-3.397-9.408-5.88a28.16 28.16 0 0 1-6.076-9.016c-1.437-3.528-2.156-7.448-2.156-11.76 0-6.011 1.307-11.041 3.92-15.092 2.744-4.181 6.599-7.513 11.564-9.996 5.096-2.613 11.107-4.377 18.032-5.292 7.056-1.045 14.896-1.372 23.52-.98.915-7.317.392-12.544-1.568-15.68-1.96-3.267-6.337-4.9-13.132-4.9-5.096 0-10.518.523-16.268 1.568-5.618 1.045-10.257 2.417-13.916 4.116l-6.076-19.012Zm32.34 72.912c5.096 0 9.147-1.111 12.152-3.332 3.006-2.352 5.227-4.835 6.664-7.448v-12.74c-4.05-.392-7.97-.457-11.76-.196-3.658.261-6.925.849-9.8 1.764-2.874.915-5.161 2.221-6.86 3.92-1.698 1.699-2.548 3.855-2.548 6.468 0 3.659 1.046 6.533 3.136 8.624 2.222 1.96 5.227 2.94 9.016 2.94Zm101.155-23.52 3.528 15.288h1.176l2.548-15.484L980.974 102h26.266l-29.794 88.396c-2.483 7.317-4.9 13.981-7.252 19.992-2.222 6.141-4.704 11.433-7.448 15.876-2.744 4.443-5.815 7.84-9.212 10.192-3.267 2.483-7.187 3.724-11.76 3.724-6.795 0-12.218-1.111-16.268-3.332l4.704-20.384c1.96.784 3.92 1.176 5.88 1.176 3.005 0 5.88-1.307 8.624-3.92 2.874-2.483 5.03-7.056 6.468-13.72l-40.964-98h30.576l18.032 55.076Z" fill="#F93"/></svg>