<svg width="48" height="32" viewBox="0 0 48 32" fill="none" xmlns="http://www.w3.org/2000/svg"><rect width="48" height="32" rx="4" fill="#FAD1D7"/><path d="M12.33 4.001h9.577c1.336 0 2.168 1.09 1.856 2.431l-4.458 19.141C18.99 26.91 17.652 28 16.314 28H6.739c-1.335 0-2.168-1.09-1.856-2.427l4.46-19.141c.312-1.341 1.65-2.43 2.988-2.43Z" fill="#E21836"/><path d="M21.11 4h11.01c1.337 0 .734 1.09.42 2.43l-4.458 19.142c-.313 1.336-.215 2.427-1.554 2.427H15.517c-1.34 0-2.168-1.09-1.854-2.427L18.121 6.43C18.437 5.09 19.77 4 21.109 4Z" fill="#00447C"/><path d="M31.685 4h9.576c1.338 0 2.17 1.09 1.855 2.43l-4.458 19.142c-.314 1.336-1.653 2.427-2.992 2.427h-9.571c-1.34 0-2.17-1.09-1.857-2.427L28.697 6.43C29.009 5.09 30.345 4 31.685 4Z" fill="#007B84"/><path d="M14.831 10.134c-.985.01-1.275 0-1.368-.022-.036.17-.7 3.235-.702 3.238-.144.62-.248 1.062-.601 1.347a1.07 1.07 0 0 1-.707.246c-.437 0-.691-.216-.734-.628l-.008-.14.133-.836s.697-2.794.822-3.163a.269.269 0 0 0 .01-.042c-1.357.012-1.598 0-1.614-.022-.01.03-.043.204-.043.204l-.712 3.148-.061.267-.119.873c0 .26.051.47.152.65.325.567 1.25.652 1.774.652.674 0 1.307-.144 1.735-.405.742-.439.936-1.124 1.11-1.734l.08-.312s.718-2.902.84-3.279c.005-.02.007-.032.013-.042Zm2.444 2.34c-.173 0-.49.043-.773.182-.104.053-.201.114-.304.175l.093-.335-.051-.057c-.603.122-.738.139-1.295.217l-.047.031c-.064.536-.122.94-.361 1.993-.092.388-.186.78-.281 1.168l.025.05c.571-.03.744-.03 1.24-.023l.04-.043c.063-.323.072-.399.211-1.053.066-.31.202-.99.27-1.233.124-.057.246-.114.363-.114.278 0 .244.242.233.34-.012.161-.113.691-.217 1.146l-.07.294c-.047.216-.1.427-.149.642l.021.043c.563-.03.734-.03 1.215-.022l.056-.043c.087-.505.112-.64.266-1.373l.078-.338c.15-.66.226-.995.112-1.267-.12-.306-.41-.38-.675-.38Zm2.731.692c-.299.057-.49.095-.68.12-.187.03-.37.058-.66.098l-.022.02-.021.017c-.03.215-.051.401-.091.62-.034.226-.086.483-.17.852-.066.283-.1.381-.137.48-.037.1-.077.197-.15.475l.017.026.014.023c.27-.013.447-.022.628-.023.182-.007.37 0 .66.001l.026-.02.027-.023c.042-.251.048-.319.074-.44.026-.132.07-.314.177-.799.05-.227.108-.454.16-.687.055-.232.113-.46.167-.687l-.008-.028-.01-.025Zm.006-.932c-.271-.16-.748-.11-1.069.112-.32.217-.356.525-.086.688.267.155.746.109 1.064-.114.32-.222.36-.527.091-.686Zm1.643 3.713c.55 0 1.114-.151 1.538-.6.326-.365.476-.908.527-1.131.17-.74.038-1.086-.127-1.296-.25-.322-.694-.424-1.154-.424-.276 0-.934.027-1.448.501-.37.342-.54.806-.643 1.25-.104.454-.223 1.27.527 1.574.232.1.565.126.78.126Zm-.042-1.665c.126-.561.276-1.032.658-1.032.299 0 .32.35.188.913-.024.125-.133.59-.281.787-.103.146-.225.234-.36.234-.04 0-.28 0-.283-.354a2.41 2.41 0 0 1 .078-.548Zm3.482 1.593.042-.043c.061-.323.071-.399.206-1.053.068-.31.207-.99.273-1.233.124-.058.244-.114.365-.114.276 0 .242.242.231.339-.01.162-.111.692-.217 1.147l-.065.293c-.05.218-.105.428-.154.643l.021.043c.565-.03.73-.03 1.213-.022l.058-.043c.085-.505.108-.64.267-1.373l.075-.338c.152-.66.228-.995.116-1.267-.124-.306-.415-.38-.676-.38-.174 0-.492.042-.774.182a5.163 5.163 0 0 0-.302.175l.086-.335-.046-.057c-.603.122-.74.139-1.297.217l-.042.031c-.068.536-.123.939-.362 1.993-.092.389-.186.78-.281 1.168l.025.05c.572-.03.742-.03 1.238-.023Zm4.146.022c.035-.173.246-1.2.248-1.2 0 0 .18-.753.19-.78 0 0 .057-.079.114-.11h.083c.784 0 1.669 0 2.363-.51.472-.35.795-.867.939-1.495.037-.154.065-.338.065-.52 0-.242-.049-.48-.188-.666-.354-.495-1.059-.504-1.872-.508l-.401.004c-1.041.013-1.459.01-1.63-.012l-.042.211-.373 1.732-.935 3.848c.91-.011 1.282-.011 1.44.006Zm.691-3.07.395-1.72.013-.087.005-.068.159.016.837.072c.323.125.456.447.363.867a1.26 1.26 0 0 1-.654.863c-.264.132-.586.143-.919.143h-.215l.016-.087Zm2.47 1.487c-.106.446-.226 1.262.52 1.553.239.101.452.131.669.12.229-.012.441-.127.637-.292l-.053.204.034.044c.537-.023.704-.023 1.286-.018l.053-.04c.084-.5.164-.985.385-1.94.108-.458.215-.912.326-1.367l-.018-.05c-.6.11-.76.134-1.339.216l-.044.036-.017.136a.826.826 0 0 0-.421-.347c-.257-.1-.86.03-1.38.502-.364.337-.54.8-.639 1.243Zm1.261.027c.129-.55.276-1.017.66-1.017.241 0 .369.224.343.605a11.7 11.7 0 0 1-.07.308c-.038.164-.08.326-.12.488a1.186 1.186 0 0 1-.141.286c-.099.14-.333.226-.468.226-.038 0-.274 0-.282-.348a2.39 2.39 0 0 1 .078-.548Zm6.59-1.818-.047-.053c-.595.12-.702.14-1.249.213l-.04.04-.006.026-.002-.01c-.407.939-.395.737-.725 1.475l-.004-.09-.083-1.601-.052-.053c-.623.12-.638.14-1.213.213l-.044.04c-.007.02-.007.04-.01.063l.003.009c.072.367.055.285.127.865.033.284.078.57.112.851.057.47.088.702.158 1.42-.389.641-.48.883-.854 1.446l.002.006-.263.416c-.03.044-.058.074-.096.087a.397.397 0 0 1-.172.024h-.146l-.217.721.744.013c.436-.002.71-.206.859-.48l.467-.802h-.007l.05-.056c.314-.678 2.707-4.783 2.707-4.783ZM32.4 21.995h-.315l1.168-3.863h.387l.123-.398.012.442c-.015.274.2.517.766.476h.654l.225-.743h-.246c-.142 0-.207-.036-.2-.113l-.011-.45h-1.21v.002c-.392.009-1.561.038-1.798.101-.286.074-.588.29-.588.29l.119-.398h-1.133l-.236.79-1.183 3.923h-.23l-.225.739h2.255l-.075.246h1.111l.074-.246h.312l.244-.798Zm-.925-3.078c-.182.05-.52.202-.52.202l.301-.987h.9l-.217.72s-.278.016-.464.065Zm.017 1.41s-.283.036-.469.078c-.183.055-.527.23-.527.23l.31-1.027h.905l-.219.72Zm-.504 1.677h-.903l.262-.867h.9l-.26.867Zm2.174-2.396h1.3l-.187.605h-1.318l-.198.662h1.154l-.874 1.23a.36.36 0 0 1-.176.148.518.518 0 0 1-.235.067h-.32l-.22.725h.837c.435 0 .692-.198.882-.457l.599-.82.129.832a.392.392 0 0 0 .215.283c.084.042.17.114.293.125.13.005.225.01.288.01h.412l.247-.812h-.163c-.093 0-.253-.015-.28-.044-.028-.036-.028-.09-.042-.174l-.13-.834h-.535l.234-.279h1.316l.202-.662h-1.218l.19-.605h1.214l.225-.747h-3.62l-.221.747Zm-10.989 2.565.304-1.01h1.248l.228-.752h-1.25l.191-.622h1.221l.226-.727h-3.054l-.222.727h.694l-.185.622h-.695l-.231.764h.694l-.405 1.337c-.055.177.026.244.076.326.052.08.105.133.224.163.122.028.206.044.32.044h1.407l.25-.832-.623.085c-.12 0-.454-.014-.418-.125Zm.143-4.836-.316.572a.688.688 0 0 1-.183.238c-.049.03-.144.042-.283.042h-.165l-.22.732h.547c.264 0 .466-.097.563-.145.104-.056.131-.024.211-.102l.186-.16h1.71l.228-.761h-1.253l.219-.416h-1.244Zm2.527 4.85c-.03-.042-.008-.116.036-.27l.468-1.548h1.664c.242-.003.418-.006.531-.014.123-.013.256-.057.4-.135a.75.75 0 0 0 .291-.268c.073-.1.188-.317.288-.651l.588-1.96-1.727.01s-.532.079-.766.166c-.236.096-.573.366-.573.366l.155-.537h-1.066l-1.494 4.953a3.054 3.054 0 0 0-.096.415c-.003.09.114.18.19.247.089.068.22.057.348.068.133.01.322.016.584.016h.82l.251-.85-.733.07a.193.193 0 0 1-.16-.078Zm.806-2.864h1.748l-.112.349c-.015.008-.053-.018-.23.003h-1.514l.108-.352Zm.35-1.167h1.762l-.126.419s-.831-.008-.964.016a1.975 1.975 0 0 0-.928.414l.256-.85Zm1.326 2.682a.186.186 0 0 1-.07.107c-.035.023-.093.032-.178.032h-.25l.015-.425h-1.036l-.042 2.074c-.001.15.013.236.123.305.11.087.446.098.9.098h.65l.234-.776-.565.03-.188.012c-.026-.011-.05-.021-.078-.049-.023-.023-.064-.009-.057-.158l.004-.532.593-.024c.32 0 .457-.104.573-.204.112-.095.148-.204.19-.351l.1-.471h-.815l-.103.332Z" fill="#FEFEFE"/></svg>