<svg width="24" height="24" viewBox="0 0 24 24" fill="none" xmlns="http://www.w3.org/2000/svg"><g clip-path="url(#a)"><path d="M17.774 16.918C11.297 20 7.278 17.42 4.704 15.855c-.159-.1-.43.023-.194.292.857 1.04 3.666 3.545 7.333 3.545 3.67 0 5.852-2.002 6.125-2.352.272-.346.08-.537-.194-.422Zm1.819-1.005c-.174-.226-1.058-.269-1.614-.2-.557.066-1.393.406-1.32.61.037.077.113.043.496.009.384-.039 1.458-.174 1.682.119.226.294-.342 1.699-.446 1.925-.1.227.038.285.227.134.185-.15.521-.541.747-1.094.224-.555.36-1.33.228-1.503Z" fill="#F90"/><path fill-rule="evenodd" clip-rule="evenodd" d="M13.419 10.628c0 .809.02 1.483-.388 2.201-.33.585-.853.944-1.437.944-.797 0-1.261-.608-1.261-1.504 0-1.77 1.585-2.09 3.086-2.09v.449Zm2.093 5.06a.433.433 0 0 1-.49.05c-.69-.573-.812-.838-1.191-1.384-1.139 1.162-1.945 1.51-3.422 1.51-1.746 0-3.107-1.078-3.107-3.236 0-1.685.914-2.832 2.213-3.393 1.127-.496 2.701-.584 3.904-.72v-.27c0-.493.038-1.077-.251-1.503-.254-.383-.739-.54-1.165-.54-.791 0-1.498.405-1.67 1.246-.035.187-.172.371-.36.38L7.96 7.612c-.17-.038-.356-.175-.31-.435C8.114 4.736 10.32 4 12.292 4c1.01 0 2.33.269 3.127 1.034 1.01.943.914 2.201.914 3.57v3.236c0 .972.403 1.398.782 1.924.135.187.164.412-.005.552a87.947 87.947 0 0 0-1.592 1.378l-.006-.006" fill="#000"/><path d="M17.774 16.918C11.297 20 7.278 17.42 4.704 15.855c-.159-.1-.43.023-.194.292.857 1.04 3.666 3.545 7.333 3.545 3.67 0 5.852-2.002 6.125-2.352.272-.346.08-.537-.194-.422Zm1.819-1.005c-.174-.226-1.058-.269-1.614-.2-.557.066-1.393.406-1.32.61.037.077.113.043.496.009.384-.039 1.458-.174 1.682.119.226.294-.342 1.699-.446 1.925-.1.227.038.285.227.134.185-.15.521-.541.747-1.094.224-.555.36-1.33.228-1.503Z" fill="#F90"/><path fill-rule="evenodd" clip-rule="evenodd" d="M13.419 10.628c0 .809.02 1.483-.388 2.201-.33.585-.853.944-1.437.944-.797 0-1.261-.608-1.261-1.504 0-1.77 1.585-2.09 3.086-2.09v.449Zm2.093 5.06a.433.433 0 0 1-.49.05c-.69-.573-.812-.838-1.191-1.384-1.139 1.162-1.945 1.51-3.422 1.51-1.746 0-3.107-1.078-3.107-3.236 0-1.685.914-2.832 2.213-3.393 1.127-.496 2.701-.584 3.904-.72v-.27c0-.493.038-1.077-.251-1.503-.254-.383-.739-.54-1.165-.54-.791 0-1.498.405-1.67 1.246-.035.187-.172.371-.36.38L7.96 7.612c-.17-.038-.356-.175-.31-.435C8.114 4.736 10.32 4 12.292 4c1.01 0 2.33.269 3.127 1.034 1.01.943.914 2.201.914 3.57v3.236c0 .972.403 1.398.782 1.924.135.187.164.412-.005.552a87.947 87.947 0 0 0-1.592 1.378l-.006-.006" fill="#000"/></g><defs><clipPath id="a"><path fill="#fff" transform="translate(4 4)" d="M0 0h16v16H0z"/></clipPath></defs></svg>