<svg width="240" height="160" viewBox="0 0 240 160" fill="none" xmlns="http://www.w3.org/2000/svg">
<path d="M231.634 0H7.61905C3.41116 0 0 3.41116 0 7.61905V152.381C0 156.589 3.41116 160 7.61905 160H231.634C235.843 160 239.253 156.589 239.253 152.381V7.61905C239.253 3.41116 235.843 0 231.634 0Z" fill="#EEEEEE"/>
<path d="M0 7.61905C0 3.41116 3.41116 0 7.61905 0H231.634C235.841 0 239.253 3.41116 239.253 7.61905V20.3175C239.253 23.1227 236.979 25.3968 234.174 25.3968H5.07935C2.27411 25.3968 0 23.1227 0 20.3175V7.61905Z" fill="#BDBDBD"/>
<path fill-rule="evenodd" clip-rule="evenodd" d="M13.3334 17.7778C15.788 17.7778 17.7778 15.788 17.7778 13.3334C17.7778 10.8788 15.788 8.88892 13.3334 8.88892C10.8788 8.88892 8.88892 10.8788 8.88892 13.3334C8.88892 15.788 10.8788 17.7778 13.3334 17.7778ZM26.0318 17.7778C28.4864 17.7778 30.4762 15.788 30.4762 13.3334C30.4762 10.8788 28.4864 8.88892 26.0318 8.88892C23.5772 8.88892 21.5873 10.8788 21.5873 13.3334C21.5873 15.788 23.5772 17.7778 26.0318 17.7778ZM43.1746 13.3334C43.1746 15.788 41.1848 17.7778 38.7302 17.7778C36.2756 17.7778 34.2857 15.788 34.2857 13.3334C34.2857 10.8788 36.2756 8.88892 38.7302 8.88892C41.1848 8.88892 43.1746 10.8788 43.1746 13.3334Z" fill="#EEEEEE"/>
<path d="M90.1587 40.6349H20.3174C17.5122 40.6349 15.238 42.9091 15.238 45.7143V139.683C15.238 142.488 17.5122 144.762 20.3174 144.762H90.1587C92.9639 144.762 95.238 142.488 95.238 139.683V45.7143C95.238 42.9091 92.9639 40.6349 90.1587 40.6349Z" fill="#9E9E9E" fill-opacity="0.32"/>
<path fill-rule="evenodd" clip-rule="evenodd" d="M68.238 83.8066C68.238 82.3336 66.988 81.1285 65.4603 81.1285H46.0158C44.4881 81.1285 43.238 82.3336 43.238 83.8066V102.554C43.238 104.027 44.4881 105.232 46.0158 105.232H65.4603C66.988 105.232 68.238 104.027 68.238 102.554V83.8066ZM49.2077 97.2581C50.0766 96.181 51.709 96.1546 52.6121 97.2031C53.5159 98.2521 55.1498 98.2249 56.018 97.1462L56.7724 96.2089C58.0171 94.6626 60.3787 94.6822 61.5975 96.249C63.1696 98.2699 61.7295 101.215 59.1691 101.215H50.9363C48.9592 101.215 47.8639 98.9238 49.1052 97.385L49.2077 97.2581Z" fill="#EEEEEE"/>
<path fill-rule="evenodd" clip-rule="evenodd" d="M110.476 43.1746C110.476 41.772 111.613 40.6349 113.016 40.6349H170.32C171.723 40.6349 172.86 41.772 172.86 43.1746V50.7937C172.86 52.1963 171.723 53.3334 170.32 53.3334H113.016C111.613 53.3334 110.476 52.1963 110.476 50.7937V43.1746Z" fill="#BDBDBD"/>
<path d="M223.644 62.2222C223.644 60.8196 222.507 59.6826 221.105 59.6826H167.06H113.016C111.613 59.6826 110.476 60.8196 110.476 62.2222V69.8413C110.476 71.244 111.613 72.381 113.016 72.381H221.105C222.507 72.381 223.644 71.244 223.644 69.8413V62.2222Z" fill="#E0E0E0"/>
<path d="M221.475 78.7302H113.016C111.613 78.7302 110.476 79.8672 110.476 81.2698V88.8889C110.476 90.2916 111.613 91.4286 113.016 91.4286H221.475C222.877 91.4286 224.015 90.2916 224.015 88.8889V81.2698C224.015 79.8672 222.877 78.7302 221.475 78.7302Z" fill="#E0E0E0"/>
<path fill-rule="evenodd" clip-rule="evenodd" d="M117.572 110.476C121.491 110.476 124.668 107.634 124.668 104.127C124.668 100.62 121.491 97.7778 117.572 97.7778C113.653 97.7778 110.476 100.62 110.476 104.127C110.476 107.634 113.653 110.476 117.572 110.476Z" fill="#E0E0E0"/>
<path fill-rule="evenodd" clip-rule="evenodd" d="M138.861 110.476C142.78 110.476 145.957 107.634 145.957 104.127C145.957 100.62 142.78 97.7778 138.861 97.7778C134.942 97.7778 131.765 100.62 131.765 104.127C131.765 107.634 134.942 110.476 138.861 110.476Z" fill="#E0E0E0"/>
<path fill-rule="evenodd" clip-rule="evenodd" d="M160.15 110.476C164.069 110.476 167.246 107.634 167.246 104.127C167.246 100.62 164.069 97.7778 160.15 97.7778C156.23 97.7778 153.053 100.62 153.053 104.127C153.053 107.634 156.23 110.476 160.15 110.476Z" fill="#E0E0E0"/>
<path d="M168.889 126.667H115.555C113.276 126.667 111.428 128.514 111.428 130.794V139.683C111.428 141.962 113.276 143.81 115.555 143.81H168.889C171.168 143.81 173.016 141.962 173.016 139.683V130.794C173.016 128.514 171.168 126.667 168.889 126.667Z" fill="#e1d3f8" stroke="#21105d" stroke-width="1.5"/>
<path d="M233.651 0H5.07937C2.27411 0 0 2.27411 0 5.07937V154.921C0 157.726 2.27411 160 5.07937 160H233.651C236.456 160 238.73 157.726 238.73 154.921V5.07937C238.73 2.27411 236.456 0 233.651 0Z" fill="black" fill-opacity="0.24"/>
<path d="M158.73 13.9683H71.1111C68.3058 13.9683 66.0317 16.2424 66.0317 19.0476V142.222C66.0317 145.027 68.3058 147.302 71.1111 147.302H158.73C161.535 147.302 163.81 145.027 163.81 142.222V19.0476C163.81 16.2424 161.535 13.9683 158.73 13.9683Z" fill="white"/>
<path d="M93.0103 131.429H138.1C139.835 131.429 141.375 131.891 142.462 132.604C143.556 133.322 144.127 134.24 144.127 135.163V137.853C144.127 138.776 143.556 139.694 142.462 140.411C141.375 141.125 139.835 141.587 138.1 141.587H93.0103C91.2767 141.587 89.7364 141.125 88.6485 140.411C87.5552 139.694 86.9841 138.776 86.9841 137.853V135.163C86.9841 134.24 87.5552 133.322 88.6485 132.604C89.7364 131.891 91.2767 131.429 93.0103 131.429Z" fill="#e1d3f8" stroke="#21105d"/>
<path fill-rule="evenodd" clip-rule="evenodd" d="M76.1904 28.2765C76.1904 27.3873 76.6963 26.6667 77.3205 26.6667H99.1874C99.8115 26.6667 100.317 27.3873 100.317 28.2765V30.6911C100.317 31.5801 99.8115 32.3008 99.1874 32.3008H77.3205C76.6963 32.3008 76.1904 31.5801 76.1904 30.6911V28.2765Z" fill="#9E9E9E" fill-opacity="0.32"/>
<path fill-rule="evenodd" clip-rule="evenodd" d="M76.1904 36.6439C76.1904 36.0428 77.0207 35.5555 78.0448 35.5555H132.749C133.774 35.5555 134.603 36.0428 134.603 36.6439V38.2767C134.603 38.8778 133.774 39.3651 132.749 39.3651H78.0448C77.0207 39.3651 76.1904 38.8778 76.1904 38.2767V36.6439Z" fill="#E0E0E0"/>
<path fill-rule="evenodd" clip-rule="evenodd" d="M76.1904 41.7233C76.1904 41.1222 76.9276 40.6349 77.8369 40.6349H121.528C122.437 40.6349 123.175 41.1222 123.175 41.7233V43.3561C123.175 43.9572 122.437 44.4445 121.528 44.4445H77.8369C76.9276 44.4445 76.1904 43.9572 76.1904 43.3561V41.7233Z" fill="#E0E0E0"/>
<path fill-rule="evenodd" clip-rule="evenodd" d="M76.1904 53.6733C76.1904 52.7841 76.6963 52.0635 77.3205 52.0635H99.1874C99.8115 52.0635 100.317 52.7841 100.317 53.6733V56.0879C100.317 56.9769 99.8115 57.6976 99.1874 57.6976H77.3205C76.6963 57.6976 76.1904 56.9769 76.1904 56.0879V53.6733Z" fill="#9E9E9E" fill-opacity="0.32"/>
<path fill-rule="evenodd" clip-rule="evenodd" d="M76.1904 62.0408C76.1904 61.4396 77.0207 60.9524 78.0448 60.9524H132.749C133.774 60.9524 134.603 61.4396 134.603 62.0408V63.6735C134.603 64.2747 133.774 64.7619 132.749 64.7619H78.0448C77.0207 64.7619 76.1904 64.2747 76.1904 63.6735V62.0408Z" fill="#E0E0E0"/>
<path fill-rule="evenodd" clip-rule="evenodd" d="M76.1904 67.1201C76.1904 66.519 76.9276 66.0317 77.8369 66.0317H121.528C122.437 66.0317 123.175 66.519 123.175 67.1201V68.7529C123.175 69.354 122.437 69.8413 121.528 69.8413H77.8369C76.9276 69.8413 76.1904 69.354 76.1904 68.7529V67.1201Z" fill="#E0E0E0"/>
<path fill-rule="evenodd" clip-rule="evenodd" d="M76.1904 79.0701C76.1904 78.181 76.6963 77.4603 77.3205 77.4603H99.1874C99.8115 77.4603 100.317 78.181 100.317 79.0701V81.4847C100.317 82.3737 99.8115 83.0945 99.1874 83.0945H77.3205C76.6963 83.0945 76.1904 82.3737 76.1904 81.4847V79.0701Z" fill="#9E9E9E" fill-opacity="0.32"/>
<path fill-rule="evenodd" clip-rule="evenodd" d="M76.1904 87.4376C76.1904 86.8364 77.0207 86.3492 78.0448 86.3492H132.749C133.774 86.3492 134.603 86.8364 134.603 87.4376V89.0703C134.603 89.6715 133.774 90.1587 132.749 90.1587H78.0448C77.0207 90.1587 76.1904 89.6715 76.1904 89.0703V87.4376Z" fill="#E0E0E0"/>
<path fill-rule="evenodd" clip-rule="evenodd" d="M76.1904 92.517C76.1904 91.9158 76.9276 91.4286 77.8369 91.4286H121.528C122.437 91.4286 123.175 91.9158 123.175 92.517V94.1497C123.175 94.7509 122.437 95.2381 121.528 95.2381H77.8369C76.9276 95.2381 76.1904 94.7509 76.1904 94.1497V92.517Z" fill="#E0E0E0"/>
<path d="M151.234 26.791C151.07 26.956 151.07 27.2227 151.234 27.3878L152.877 29.0302L151.234 30.6725C151.07 30.8376 151.07 31.1042 151.234 31.2693C151.399 31.4344 151.666 31.4344 151.831 31.2693L153.774 29.3265C153.939 29.1614 153.939 28.8947 153.774 28.7296L151.831 26.7868C151.671 26.6259 151.399 26.6259 151.234 26.791Z" fill="#757575"/>
<path d="M151.234 52.1878C151.07 52.3529 151.07 52.6196 151.234 52.7846L152.877 54.4271L151.234 56.0693C151.07 56.2344 151.07 56.5011 151.234 56.6662C151.399 56.8312 151.666 56.8312 151.831 56.6662L153.774 54.7233C153.939 54.5582 153.939 54.2916 153.774 54.1265L151.831 52.1836C151.671 52.0227 151.399 52.0227 151.234 52.1878Z" fill="#757575"/>
<path d="M151.234 77.5847C151.07 77.7497 151.07 78.0164 151.234 78.1815L152.877 79.8239L151.234 81.4662C151.07 81.6313 151.07 81.8979 151.234 82.063C151.399 82.2281 151.666 82.2281 151.831 82.063L153.774 80.1202C153.939 79.9551 153.939 79.6884 153.774 79.5233L151.831 77.5805C151.671 77.4196 151.399 77.4196 151.234 77.5847Z" fill="#757575"/>
<path d="M92.92 107.937H78.5083C77.9294 107.937 77.4602 108.269 77.4602 108.68V122.431C77.4602 122.842 77.9294 123.175 78.5083 123.175H92.92C93.4989 123.175 93.9681 122.842 93.9681 122.431V108.68C93.9681 108.269 93.4989 107.937 92.92 107.937Z" fill="#9E9E9E" fill-opacity="0.32"/>
<path fill-rule="evenodd" clip-rule="evenodd" d="M88.8094 113.276C88.8094 112.918 88.4998 112.625 88.1215 112.625H83.3068C82.9285 112.625 82.6189 112.918 82.6189 113.276V117.835C82.6189 118.193 82.9285 118.486 83.3068 118.486H88.1215C88.4998 118.486 88.8094 118.193 88.8094 117.835V113.276ZM84.5105 116.044L85.3703 117.024L86.5739 115.556L88.1215 117.509H83.3068L84.5105 116.044Z" fill="#EEEEEE"/>
<path fill-rule="evenodd" clip-rule="evenodd" d="M96.5078 109.164C96.5078 108.486 96.9062 107.937 97.3975 107.937H114.612C115.103 107.937 115.501 108.486 115.501 109.164V111.006C115.501 111.685 115.103 112.234 114.612 112.234H97.3975C96.9062 112.234 96.5078 111.685 96.5078 111.006V109.164Z" fill="#9E9E9E" fill-opacity="0.32"/>
<path fill-rule="evenodd" clip-rule="evenodd" d="M96.5078 114.425C96.5078 113.917 96.9057 113.505 97.3964 113.505H123.61C124.101 113.505 124.498 113.917 124.498 114.425V115.807C124.498 116.316 124.101 116.728 123.61 116.728H97.3964C96.9057 116.728 96.5078 116.316 96.5078 115.807V114.425Z" fill="#E0E0E0"/>
<path d="M98.4127 118.315H122.54C123.376 118.315 123.726 118.521 123.895 118.753C124.083 119.011 124.127 119.395 124.127 119.939V121.135C124.127 121.679 124.083 122.063 123.895 122.321C123.726 122.553 123.376 122.759 122.54 122.759H98.4127C97.5766 122.759 97.2261 122.553 97.0571 122.321C96.8691 122.063 96.8254 121.679 96.8254 121.135V119.939C96.8254 119.395 96.8691 119.011 97.0571 118.753C97.2261 118.521 97.5766 118.315 98.4127 118.315Z" fill="#e1d3f8" stroke="#21105d" stroke-width="0.5"/>
<path d="M111.746 120.749H110.688V121.807C110.688 121.923 110.592 122.019 110.476 122.019C110.36 122.019 110.264 121.923 110.264 121.807V120.749H109.206C109.09 120.749 108.995 120.654 108.995 120.537C108.995 120.421 109.09 120.326 109.206 120.326H110.264V119.267C110.264 119.151 110.36 119.056 110.476 119.056C110.592 119.056 110.688 119.151 110.688 119.267V120.326H111.746C111.862 120.326 111.958 120.421 111.958 120.537C111.958 120.654 111.862 120.749 111.746 120.749Z" fill="white"/>
<path d="M124.498 105.714H77.4603C76.233 105.714 75.238 106.709 75.238 107.937V123.175C75.238 124.402 76.233 125.397 77.4603 125.397H124.498C125.726 125.397 126.721 124.402 126.721 123.175V107.937C126.721 106.709 125.726 105.714 124.498 105.714Z" stroke="#E0E0E0" stroke-width="0.5"/>
<path d="M148.794 107.937H134.381C133.803 107.937 133.333 108.269 133.333 108.68V122.431C133.333 122.842 133.803 123.175 134.381 123.175H148.794C149.371 123.175 149.841 122.842 149.841 122.431V108.68C149.841 108.269 149.371 107.937 148.794 107.937Z" fill="#9E9E9E" fill-opacity="0.32"/>
<path fill-rule="evenodd" clip-rule="evenodd" d="M144.682 113.276C144.682 112.918 144.373 112.625 143.995 112.625H139.18C138.801 112.625 138.491 112.918 138.491 113.276V117.835C138.491 118.193 138.801 118.486 139.18 118.486H143.995C144.373 118.486 144.682 118.193 144.682 117.835V113.276ZM140.384 116.044L141.243 117.024L142.447 115.556L143.995 117.509H139.18L140.384 116.044Z" fill="#EEEEEE"/>
<path d="M151.449 105.397H131.726C131.211 105.397 130.794 106.424 130.794 107.691V123.42C130.794 124.687 131.211 125.714 131.726 125.714H151.449C151.964 125.714 152.381 124.687 152.381 123.42V107.691C152.381 106.424 151.964 105.397 151.449 105.397Z" stroke="#E0E0E0" stroke-width="0.5"/>
<path d="M153.651 105.397H140.952V125.714H153.651V105.397Z" fill="url(#paint0_linear_1033_9355)"/>
<path d="M75.0991 102.857V100.087H76.2951C76.5006 100.087 76.6806 100.124 76.8349 100.199C76.989 100.274 77.109 100.381 77.1946 100.522C77.2803 100.663 77.3231 100.831 77.3231 101.028C77.3231 101.227 77.2789 101.394 77.1906 101.53C77.1032 101.666 76.98 101.769 76.8213 101.838C76.6634 101.908 76.4791 101.943 76.268 101.943H75.5537V101.358H76.1165C76.2049 101.358 76.2802 101.347 76.3424 101.326C76.4055 101.303 76.4538 101.268 76.4872 101.219C76.5215 101.17 76.5385 101.107 76.5385 101.028C76.5385 100.949 76.5215 100.884 76.4872 100.835C76.4538 100.784 76.4055 100.747 76.3424 100.724C76.2802 100.699 76.2049 100.687 76.1165 100.687H75.8514V102.857H75.0991ZM76.7225 101.586L77.4152 102.857H76.598L75.9217 101.586H76.7225ZM77.8977 102.857V100.087H79.8946V100.693H78.65V101.169H79.7917V101.775H78.65V102.251H79.8891V102.857H77.8977ZM83.1081 101.126H82.3451C82.3398 101.062 82.3253 101.005 82.3018 100.954C82.2793 100.902 82.2477 100.858 82.2072 100.821C82.1674 100.783 82.1192 100.754 82.0624 100.735C82.0055 100.714 81.941 100.703 81.8689 100.703C81.7427 100.703 81.6358 100.734 81.5483 100.795C81.4618 100.857 81.3959 100.945 81.3508 101.059C81.3066 101.174 81.2845 101.311 81.2845 101.472C81.2845 101.641 81.3071 101.783 81.3522 101.898C81.3982 102.012 81.4645 102.097 81.5511 102.155C81.6375 102.212 81.7418 102.24 81.8636 102.24C81.9329 102.24 81.9953 102.232 82.0502 102.215C82.1052 102.197 82.153 102.171 82.1936 102.137C82.2342 102.104 82.2671 102.064 82.2924 102.017C82.3185 101.969 82.3361 101.916 82.3451 101.856L83.1081 101.861C83.0991 101.979 83.0661 102.098 83.0094 102.22C82.9526 102.341 82.8718 102.453 82.7672 102.555C82.6634 102.657 82.5349 102.739 82.3817 102.802C82.2283 102.864 82.0502 102.895 81.8473 102.895C81.593 102.895 81.3648 102.841 81.1627 102.731C80.9616 102.622 80.8025 102.462 80.6852 102.25C80.5688 102.038 80.5107 101.779 80.5107 101.472C80.5107 101.163 80.5702 100.904 80.6892 100.693C80.8083 100.481 80.9688 100.321 81.1709 100.212C81.3729 100.103 81.5984 100.049 81.8473 100.049C82.0223 100.049 82.1832 100.073 82.3302 100.12C82.4773 100.168 82.6062 100.238 82.7172 100.33C82.828 100.421 82.9174 100.533 82.985 100.667C83.0526 100.8 83.0937 100.953 83.1081 101.126ZM86.3872 101.472C86.3872 101.78 86.3273 102.041 86.2074 102.252C86.0874 102.464 85.9255 102.624 85.7217 102.733C85.5179 102.841 85.2906 102.895 85.04 102.895C84.7874 102.895 84.5592 102.841 84.3554 102.731C84.1525 102.621 83.9911 102.461 83.8711 102.25C83.7521 102.038 83.6925 101.779 83.6925 101.472C83.6925 101.163 83.7521 100.904 83.8711 100.693C83.9911 100.481 84.1525 100.321 84.3554 100.212C84.5592 100.103 84.7874 100.049 85.04 100.049C85.2906 100.049 85.5179 100.103 85.7217 100.212C85.9255 100.321 86.0874 100.481 86.2074 100.693C86.3273 100.904 86.3872 101.163 86.3872 101.472ZM85.6135 101.472C85.6135 101.306 85.5914 101.166 85.5473 101.052C85.5039 100.938 85.4394 100.851 85.3537 100.793C85.269 100.733 85.1644 100.703 85.04 100.703C84.9155 100.703 84.8104 100.733 84.7247 100.793C84.64 100.851 84.5754 100.938 84.5312 101.052C84.4879 101.166 84.4664 101.306 84.4664 101.472C84.4664 101.638 84.4879 101.778 84.5312 101.893C84.5754 102.006 84.64 102.093 84.7247 102.152C84.8104 102.211 84.9155 102.24 85.04 102.24C85.1644 102.24 85.269 102.211 85.3537 102.152C85.4394 102.093 85.5039 102.006 85.5473 101.893C85.5914 101.778 85.6135 101.638 85.6135 101.472ZM86.9893 100.087H87.9254L88.5693 101.656H88.6019L89.2458 100.087H90.1819V102.857H89.446V101.255H89.4243L88.8074 102.836H88.3638L87.7469 101.245H87.7252V102.857H86.9893V100.087ZM90.7923 100.087H91.7285L92.3724 101.656H92.4049L93.0488 100.087H93.985V102.857H93.2491V101.255H93.2274L92.6105 102.836H92.1668L91.5499 101.245H91.5283V102.857H90.7923V100.087ZM94.5954 102.857V100.087H96.5922V100.693H95.3476V101.169H96.4893V101.775H95.3476V102.251H96.5867V102.857H94.5954ZM99.6163 100.087V102.857H98.9886L97.9876 101.402H97.9714V102.857H97.2193V100.087H97.8577L98.8426 101.537H98.8642V100.087H99.6163ZM101.292 102.857H100.226V100.087H101.281C101.566 100.087 101.813 100.142 102.02 100.253C102.228 100.363 102.389 100.522 102.502 100.729C102.615 100.936 102.672 101.183 102.672 101.472C102.672 101.761 102.616 102.009 102.503 102.216C102.39 102.422 102.231 102.581 102.024 102.692C101.817 102.802 101.574 102.857 101.292 102.857ZM100.978 102.219H101.265C101.402 102.219 101.519 102.197 101.615 102.152C101.713 102.108 101.787 102.032 101.837 101.924C101.889 101.815 101.914 101.665 101.914 101.472C101.914 101.279 101.888 101.128 101.836 101.02C101.785 100.912 101.709 100.836 101.609 100.791C101.51 100.747 101.388 100.725 101.244 100.725H100.978V102.219ZM103.274 102.857V100.087H105.271V100.693H104.026V101.169H105.168V101.775H104.026V102.251H105.265V102.857H103.274ZM106.964 102.857H105.898V100.087H106.953C107.238 100.087 107.484 100.142 107.692 100.253C107.9 100.363 108.061 100.522 108.173 100.729C108.287 100.936 108.344 101.183 108.344 101.472C108.344 101.761 108.287 102.009 108.175 102.216C108.062 102.422 107.902 102.581 107.696 102.692C107.489 102.802 107.245 102.857 106.964 102.857ZM106.65 102.219H106.937C107.074 102.219 107.191 102.197 107.287 102.152C107.384 102.108 107.458 102.032 107.509 101.924C107.56 101.815 107.586 101.665 107.586 101.472C107.586 101.279 107.56 101.128 107.508 101.02C107.456 100.912 107.38 100.836 107.28 100.791C107.181 100.747 107.059 100.725 106.915 100.725H106.65V102.219ZM109.959 102.857V100.087H111.154C111.36 100.087 111.54 100.127 111.694 100.208C111.848 100.29 111.968 100.404 112.054 100.551C112.14 100.698 112.183 100.869 112.183 101.066C112.183 101.264 112.138 101.436 112.05 101.581C111.962 101.727 111.839 101.838 111.681 101.917C111.523 101.995 111.338 102.035 111.127 102.035H110.413V101.45H110.976C111.064 101.45 111.14 101.435 111.202 101.404C111.265 101.373 111.313 101.328 111.346 101.27C111.381 101.213 111.398 101.145 111.398 101.066C111.398 100.987 111.381 100.919 111.346 100.863C111.313 100.806 111.265 100.763 111.202 100.733C111.14 100.703 111.064 100.687 110.976 100.687H110.711V102.857H109.959ZM112.712 102.857V100.087H113.908C114.114 100.087 114.294 100.124 114.448 100.199C114.602 100.274 114.722 100.381 114.808 100.522C114.894 100.663 114.937 100.831 114.937 101.028C114.937 101.227 114.892 101.394 114.804 101.53C114.717 101.666 114.593 101.769 114.435 101.838C114.277 101.908 114.092 101.943 113.881 101.943H113.167V101.358H113.73C113.818 101.358 113.894 101.347 113.956 101.326C114.019 101.303 114.067 101.268 114.101 101.219C114.135 101.17 114.152 101.107 114.152 101.028C114.152 100.949 114.135 100.884 114.101 100.835C114.067 100.784 114.019 100.747 113.956 100.724C113.894 100.699 113.818 100.687 113.73 100.687H113.465V102.857H112.712ZM114.336 101.586L115.029 102.857H114.211L113.535 101.586H114.336ZM118.195 101.472C118.195 101.78 118.135 102.041 118.015 102.252C117.895 102.464 117.733 102.624 117.529 102.733C117.326 102.841 117.098 102.895 116.848 102.895C116.595 102.895 116.367 102.841 116.163 102.731C115.96 102.621 115.799 102.461 115.679 102.25C115.56 102.038 115.5 101.779 115.5 101.472C115.5 101.163 115.56 100.904 115.679 100.693C115.799 100.481 115.96 100.321 116.163 100.212C116.367 100.103 116.595 100.049 116.848 100.049C117.098 100.049 117.326 100.103 117.529 100.212C117.733 100.321 117.895 100.481 118.015 100.693C118.135 100.904 118.195 101.163 118.195 101.472ZM117.421 101.472C117.421 101.306 117.399 101.166 117.355 101.052C117.312 100.938 117.247 100.851 117.162 100.793C117.077 100.733 116.972 100.703 116.848 100.703C116.723 100.703 116.618 100.733 116.533 100.793C116.448 100.851 116.383 100.938 116.339 101.052C116.296 101.166 116.274 101.306 116.274 101.472C116.274 101.638 116.296 101.778 116.339 101.893C116.383 102.006 116.448 102.093 116.533 102.152C116.618 102.211 116.723 102.24 116.848 102.24C116.972 102.24 117.077 102.211 117.162 102.152C117.247 102.093 117.312 102.006 117.355 101.893C117.399 101.778 117.421 101.638 117.421 101.472ZM120.437 100.087H121.189V101.861C121.189 102.073 121.138 102.255 121.037 102.409C120.937 102.563 120.797 102.681 120.618 102.765C120.438 102.848 120.23 102.89 119.993 102.89C119.754 102.89 119.545 102.848 119.365 102.765C119.186 102.681 119.046 102.563 118.946 102.409C118.847 102.255 118.797 102.073 118.797 101.861V100.087H119.549V101.797C119.549 101.882 119.568 101.959 119.606 102.027C119.644 102.093 119.696 102.146 119.763 102.183C119.831 102.221 119.907 102.24 119.993 102.24C120.08 102.24 120.156 102.221 120.223 102.183C120.29 102.146 120.342 102.093 120.38 102.027C120.418 101.959 120.437 101.882 120.437 101.797V100.087ZM122.866 102.857H121.8V100.087H122.855C123.141 100.087 123.387 100.142 123.594 100.253C123.802 100.363 123.963 100.522 124.076 100.729C124.189 100.936 124.246 101.183 124.246 101.472C124.246 101.761 124.19 102.009 124.077 102.216C123.964 102.422 123.805 102.581 123.598 102.692C123.392 102.802 123.148 102.857 122.866 102.857ZM122.552 102.219H122.839C122.976 102.219 123.093 102.197 123.19 102.152C123.287 102.108 123.361 102.032 123.412 101.924C123.463 101.815 123.489 101.665 123.489 101.472C123.489 101.279 123.462 101.128 123.41 101.02C123.359 100.912 123.283 100.836 123.183 100.791C123.084 100.747 122.962 100.725 122.818 100.725H122.552V102.219ZM127.435 101.126H126.672C126.666 101.062 126.652 101.005 126.629 100.954C126.606 100.902 126.574 100.858 126.534 100.821C126.494 100.783 126.446 100.754 126.389 100.735C126.332 100.714 126.268 100.703 126.196 100.703C126.069 100.703 125.962 100.734 125.875 100.795C125.788 100.857 125.722 100.945 125.677 101.059C125.633 101.174 125.611 101.311 125.611 101.472C125.611 101.641 125.634 101.783 125.679 101.898C125.725 102.012 125.791 102.097 125.878 102.155C125.964 102.212 126.068 102.24 126.19 102.24C126.26 102.24 126.322 102.232 126.377 102.215C126.432 102.197 126.48 102.171 126.52 102.137C126.561 102.104 126.594 102.064 126.619 102.017C126.645 101.969 126.663 101.916 126.672 101.856L127.435 101.861C127.426 101.979 127.393 102.098 127.336 102.22C127.279 102.341 127.199 102.453 127.093 102.555C126.99 102.657 126.862 102.739 126.708 102.802C126.555 102.864 126.377 102.895 126.174 102.895C125.92 102.895 125.691 102.841 125.489 102.731C125.288 102.622 125.129 102.462 125.012 102.25C124.896 102.038 124.837 101.779 124.837 101.472C124.837 101.163 124.897 100.904 125.016 100.693C125.135 100.481 125.295 100.321 125.497 100.212C125.7 100.103 125.925 100.049 126.174 100.049C126.349 100.049 126.51 100.073 126.657 100.12C126.804 100.168 126.933 100.238 127.044 100.33C127.154 100.421 127.244 100.533 127.312 100.667C127.379 100.8 127.421 100.953 127.435 101.126ZM127.954 100.693V100.087H130.362V100.693H129.529V102.857H128.787V100.693H127.954ZM132.392 100.952C132.386 100.862 132.352 100.792 132.291 100.741C132.232 100.691 132.141 100.666 132.019 100.666C131.942 100.666 131.878 100.675 131.829 100.694C131.78 100.712 131.743 100.737 131.721 100.768C131.696 100.8 131.685 100.836 131.684 100.877C131.682 100.91 131.688 100.94 131.702 100.967C131.715 100.993 131.738 101.017 131.769 101.039C131.799 101.06 131.839 101.079 131.887 101.096C131.935 101.113 131.991 101.128 132.057 101.142L132.284 101.19C132.438 101.223 132.569 101.266 132.678 101.319C132.787 101.372 132.876 101.435 132.946 101.507C133.016 101.578 133.067 101.659 133.098 101.748C133.133 101.837 133.149 101.934 133.15 102.04C133.149 102.222 133.103 102.376 133.013 102.503C132.923 102.629 132.795 102.725 132.627 102.791C132.46 102.857 132.259 102.89 132.025 102.89C131.784 102.89 131.573 102.854 131.394 102.783C131.215 102.711 131.077 102.602 130.978 102.454C130.88 102.305 130.83 102.115 130.829 101.883H131.543C131.548 101.968 131.569 102.039 131.606 102.097C131.644 102.155 131.698 102.198 131.766 102.228C131.836 102.258 131.919 102.273 132.014 102.273C132.094 102.273 132.161 102.263 132.216 102.243C132.269 102.223 132.311 102.196 132.339 102.16C132.367 102.125 132.381 102.085 132.382 102.04C132.381 101.998 132.367 101.961 132.34 101.929C132.314 101.897 132.27 101.868 132.211 101.843C132.15 101.816 132.069 101.792 131.966 101.77L131.689 101.71C131.444 101.657 131.251 101.568 131.109 101.443C130.969 101.318 130.898 101.147 130.899 100.931C130.898 100.755 130.945 100.601 131.04 100.469C131.135 100.337 131.267 100.234 131.436 100.16C131.606 100.086 131.801 100.049 132.019 100.049C132.242 100.049 132.437 100.086 132.599 100.161C132.763 100.236 132.889 100.341 132.978 100.478C133.067 100.613 133.111 100.771 133.112 100.952H132.392Z" fill="#21105d"/>
<path d="M163.81 10.1587C163.81 8.05477 165.515 6.34918 167.619 6.34918C169.723 6.34918 171.429 8.05477 171.429 10.1587C171.429 12.2626 169.723 13.9682 167.619 13.9682C165.515 13.9682 163.81 12.2626 163.81 10.1587Z" fill="#757575"/>
<path d="M169.619 8.16213C169.495 8.03832 169.295 8.03832 169.171 8.16213L167.619 9.71134L166.066 8.15896C165.943 8.03515 165.742 8.03515 165.619 8.15896C165.495 8.28277 165.495 8.48277 165.619 8.60658L167.171 10.159L165.619 11.7113C165.495 11.8351 165.495 12.0351 165.619 12.159C165.742 12.2828 165.943 12.2828 166.066 12.159L167.619 10.6066L169.171 12.159C169.295 12.2828 169.495 12.2828 169.619 12.159C169.742 12.0351 169.742 11.8351 169.619 11.7113L168.066 10.159L169.619 8.60658C169.74 8.48594 169.74 8.28277 169.619 8.16213Z" fill="#E0E0E0"/>
<path d="M167.619 13.5873C165.726 13.5873 164.19 12.0523 164.19 10.1587H163.428C163.428 12.4731 165.304 14.3492 167.619 14.3492V13.5873ZM171.048 10.1587C171.048 12.0523 169.512 13.5873 167.619 13.5873V14.3492C169.934 14.3492 171.809 12.4731 171.809 10.1587H171.048ZM167.619 6.73017C169.512 6.73017 171.048 8.26519 171.048 10.1587H171.809C171.809 7.8444 169.934 5.96826 167.619 5.96826V6.73017ZM167.619 5.96826C165.304 5.96826 163.428 7.8444 163.428 10.1587H164.19C164.19 8.26519 165.726 6.73017 167.619 6.73017V5.96826Z" fill="#E0E0E0"/>
<path d="M50.7975 107.09C50.2333 107.654 50.2333 108.566 50.7975 109.13L56.4112 114.744H34.4627C33.6669 114.744 33.0159 115.395 33.0159 116.19C33.0159 116.986 33.6669 117.637 34.4627 117.637H56.4256L50.8119 123.251C50.2477 123.815 50.2477 124.727 50.8119 125.291C51.3763 125.855 52.2877 125.855 52.8521 125.291L60.9398 117.203C61.5041 116.639 61.5041 115.728 60.9398 115.163L52.8376 107.09C52.2877 106.526 51.3618 106.526 50.7975 107.09Z" fill="white"/>
<defs>
<linearGradient id="paint0_linear_1033_9355" x1="153.651" y1="114.253" x2="140.973" y2="114.837" gradientUnits="userSpaceOnUse">
<stop stop-color="white"/>
<stop offset="1" stop-color="white" stop-opacity="0"/>
</linearGradient>
</defs>
</svg>
