<svg width="198" height="126" viewBox="0 0 198 126" fill="none" xmlns="http://www.w3.org/2000/svg">
<g clip-path="url(#clip0_509_189)">
<path d="M191.5 0H6.5C3.18629 0 0.5 2.68629 0.5 6V120C0.5 123.314 3.18629 126 6.5 126H191.5C194.814 126 197.5 123.314 197.5 120V6C197.5 2.68629 194.814 0 191.5 0Z" fill="#EEEEEE"/>
<path d="M0.5 6C0.5 2.68629 3.18629 0 6.5 0H191.5C194.814 0 197.5 2.68629 197.5 6V20H0.5V6Z" fill="#BDBDBD"/>
<path fill-rule="evenodd" clip-rule="evenodd" d="M11 14C12.933 14 14.5 12.433 14.5 10.5C14.5 8.567 12.933 7 11 7C9.067 7 7.5 8.567 7.5 10.5C7.5 12.433 9.067 14 11 14ZM21 14C22.933 14 24.5 12.433 24.5 10.5C24.5 8.567 22.933 7 21 7C19.067 7 17.5 8.567 17.5 10.5C17.5 12.433 19.067 14 21 14ZM34.5 10.5C34.5 12.433 32.933 14 31 14C29.067 14 27.5 12.433 27.5 10.5C27.5 8.567 29.067 7 31 7C32.933 7 34.5 8.567 34.5 10.5Z" fill="#EEEEEE"/>
<path d="M71.5 32H16.5C14.2909 32 12.5 33.7909 12.5 36V110C12.5 112.209 14.2909 114 16.5 114H71.5C73.7091 114 75.5 112.209 75.5 110V36C75.5 33.7909 73.7091 32 71.5 32Z" fill="#9E9E9E" fill-opacity="0.32"/>
<path fill-rule="evenodd" clip-rule="evenodd" d="M54.2375 65.9977C54.2375 64.8377 53.2531 63.8887 52.05 63.8887H36.7375C35.5344 63.8887 34.55 64.8377 34.55 65.9977V80.7611C34.55 81.9211 35.5344 82.8702 36.7375 82.8702H52.05C53.2531 82.8702 54.2375 81.9211 54.2375 80.7611V65.9977ZM40.5656 74.9612L43.3 78.1353L47.1281 73.3794L52.05 79.7066H36.7375L40.5656 74.9612Z" fill="#EEEEEE"/>
<path fill-rule="evenodd" clip-rule="evenodd" d="M87.5 36C87.5 34.8954 88.3954 34 89.5 34H147.5C148.605 34 149.5 34.8954 149.5 36V40C149.5 41.1046 148.605 42 147.5 42H89.5C88.3954 42 87.5 41.1046 87.5 40V36Z" fill="#BDBDBD"/>
<path d="M180.5 47H89.5C88.3954 47 87.5 47.8954 87.5 49V53C87.5 54.1046 88.3954 55 89.5 55H180.5C181.605 55 182.5 54.1046 182.5 53V49C182.5 47.8954 181.605 47 180.5 47Z" fill="#E0E0E0"/>
<path d="M161.5 60H89.5C88.3954 60 87.5 60.8954 87.5 62V66C87.5 67.1046 88.3954 68 89.5 68H161.5C162.605 68 163.5 67.1046 163.5 66V62C163.5 60.8954 162.605 60 161.5 60Z" fill="#E0E0E0"/>
<path d="M181.5 76.75H91.5C89.7051 76.75 88.25 78.2051 88.25 80V88C88.25 89.7949 89.7051 91.25 91.5 91.25H181.5C183.295 91.25 184.75 89.7949 184.75 88V80C184.75 78.2051 183.295 76.75 181.5 76.75Z" fill="#e1d3f8"/>
<path d="M97.8793 86.0005V81.6368H100.82V82.3975H98.8018V83.4372H100.668V84.1979H98.8018V85.2398H100.828V86.0005H97.8793ZM103.418 81.6368L104.298 83.124H104.332L105.216 81.6368H106.258L104.927 83.8186L106.288 86.0005H105.227L104.332 84.5111H104.298L103.403 86.0005H102.346L103.712 83.8186L102.372 81.6368H103.418ZM107.842 86.0005V81.6368H109.564C109.895 81.6368 110.177 81.7 110.41 81.8264C110.643 81.9514 110.82 82.1254 110.942 82.3484C111.066 82.57 111.128 82.8257 111.128 83.1155C111.128 83.4052 111.065 83.661 110.94 83.8826C110.815 84.1042 110.634 84.2768 110.397 84.4004C110.161 84.5239 109.876 84.5856 109.54 84.5856H108.443V83.8464H109.391C109.569 83.8464 109.715 83.8158 109.83 83.7548C109.947 83.6923 110.033 83.6062 110.09 83.4968C110.148 83.3861 110.177 83.2589 110.177 83.1155C110.177 82.9706 110.148 82.8442 110.09 82.7363C110.033 82.6269 109.947 82.5424 109.83 82.4827C109.714 82.4217 109.566 82.3911 109.387 82.3911H108.765V86.0005H107.842ZM112.727 86.0005V81.6368H114.449C114.778 81.6368 115.059 81.6958 115.292 81.8137C115.527 81.9302 115.705 82.0957 115.827 82.3102C115.951 82.5232 116.012 82.7738 116.012 83.0622C116.012 83.352 115.95 83.6014 115.825 83.8102C115.7 84.0175 115.519 84.1766 115.282 84.2874C115.046 84.3982 114.76 84.4536 114.425 84.4536H113.272V83.7121H114.276C114.452 83.7121 114.598 83.6879 114.715 83.6396C114.831 83.5913 114.918 83.5189 114.975 83.4223C115.033 83.3257 115.062 83.2057 115.062 83.0622C115.062 82.9173 115.033 82.7951 114.975 82.6957C114.918 82.5963 114.831 82.521 114.713 82.4699C114.596 82.4173 114.449 82.3911 114.272 82.3911H113.65V86.0005H112.727ZM115.083 84.0146L116.168 86.0005H115.15L114.088 84.0146H115.083ZM117.664 86.0005V81.6368H120.605V82.3975H118.587V83.4372H120.453V84.1979H118.587V85.2398H120.613V86.0005H117.664ZM124.705 82.8917C124.688 82.7199 124.615 82.5863 124.486 82.4912C124.357 82.396 124.181 82.3484 123.96 82.3484C123.809 82.3484 123.682 82.3698 123.578 82.4124C123.475 82.4536 123.395 82.5112 123.34 82.585C123.286 82.6589 123.259 82.7426 123.259 82.8363C123.256 82.9145 123.272 82.9826 123.308 83.0409C123.345 83.0991 123.395 83.1496 123.459 83.1923C123.523 83.2335 123.597 83.2696 123.681 83.3008C123.764 83.3307 123.854 83.3562 123.949 83.3775L124.341 83.4714C124.531 83.514 124.706 83.5707 124.865 83.6417C125.024 83.7128 125.162 83.8001 125.279 83.9038C125.395 84.0075 125.485 84.1297 125.549 84.2703C125.615 84.4109 125.648 84.5722 125.649 84.7541C125.648 85.0211 125.58 85.2525 125.445 85.4486C125.311 85.6432 125.118 85.7945 124.865 85.9025C124.614 86.009 124.311 86.0622 123.955 86.0622C123.603 86.0622 123.296 86.0083 123.035 85.9004C122.775 85.7924 122.572 85.6326 122.426 85.421C122.281 85.2079 122.205 84.9443 122.198 84.6304H123.09C123.1 84.7767 123.142 84.8988 123.216 84.9968C123.291 85.0934 123.392 85.1666 123.517 85.2163C123.643 85.2646 123.786 85.2888 123.945 85.2888C124.101 85.2888 124.237 85.266 124.352 85.2206C124.468 85.1751 124.558 85.112 124.622 85.031C124.686 84.9501 124.718 84.857 124.718 84.7519C124.718 84.6539 124.689 84.5715 124.631 84.5048C124.574 84.438 124.49 84.3812 124.379 84.3343C124.27 84.2874 124.136 84.2448 123.977 84.2065L123.502 84.0871C123.134 83.9977 122.843 83.8577 122.63 83.6674C122.417 83.4771 122.311 83.2206 122.313 82.8981C122.311 82.6339 122.382 82.4031 122.524 82.2057C122.667 82.0082 122.864 81.8541 123.114 81.7433C123.364 81.6325 123.648 81.5771 123.966 81.5771C124.29 81.5771 124.573 81.6325 124.814 81.7433C125.057 81.8541 125.246 82.0082 125.381 82.2057C125.516 82.4031 125.585 82.6318 125.59 82.8917H124.705ZM129.637 82.8917C129.62 82.7199 129.547 82.5863 129.418 82.4912C129.288 82.396 129.113 82.3484 128.891 82.3484C128.741 82.3484 128.614 82.3698 128.51 82.4124C128.406 82.4536 128.327 82.5112 128.271 82.585C128.217 82.6589 128.19 82.7426 128.19 82.8363C128.188 82.9145 128.204 82.9826 128.239 83.0409C128.276 83.0991 128.327 83.1496 128.391 83.1923C128.455 83.2335 128.528 83.2696 128.612 83.3008C128.696 83.3307 128.786 83.3562 128.881 83.3775L129.273 83.4714C129.463 83.514 129.638 83.5707 129.797 83.6417C129.956 83.7128 130.094 83.8001 130.21 83.9038C130.327 84.0075 130.417 84.1297 130.481 84.2703C130.546 84.4109 130.58 84.5722 130.581 84.7541C130.58 85.0211 130.511 85.2525 130.376 85.4486C130.243 85.6432 130.05 85.7945 129.797 85.9025C129.545 86.009 129.242 86.0622 128.887 86.0622C128.535 86.0622 128.228 86.0083 127.967 85.9004C127.707 85.7924 127.504 85.6326 127.357 85.421C127.212 85.2079 127.136 84.9443 127.129 84.6304H128.022C128.032 84.7767 128.074 84.8988 128.148 84.9968C128.223 85.0934 128.323 85.1666 128.448 85.2163C128.575 85.2646 128.717 85.2888 128.876 85.2888C129.033 85.2888 129.168 85.266 129.283 85.2206C129.4 85.1751 129.49 85.112 129.554 85.031C129.618 84.9501 129.65 84.857 129.65 84.7519C129.65 84.6539 129.621 84.5715 129.562 84.5048C129.506 84.438 129.422 84.3812 129.311 84.3343C129.202 84.2874 129.067 84.2448 128.908 84.2065L128.433 84.0871C128.065 83.9977 127.775 83.8577 127.562 83.6674C127.349 83.4771 127.243 83.2206 127.244 82.8981C127.243 82.6339 127.313 82.4031 127.455 82.2057C127.599 82.0082 127.795 81.8541 128.045 81.7433C128.295 81.6325 128.58 81.5771 128.898 81.5771C129.222 81.5771 129.504 81.6325 129.746 81.7433C129.989 81.8541 130.178 82.0082 130.312 82.2057C130.447 82.4031 130.517 82.6318 130.521 82.8917H129.637ZM138.44 83.1646H137.507C137.49 83.0438 137.455 82.9366 137.403 82.8428C137.35 82.7477 137.283 82.6667 137.2 82.5999C137.118 82.5332 137.023 82.4819 136.915 82.4464C136.808 82.4109 136.692 82.3932 136.567 82.3932C136.342 82.3932 136.145 82.4493 135.977 82.5615C135.81 82.6723 135.68 82.8342 135.587 83.0473C135.495 83.2589 135.449 83.516 135.449 83.8186C135.449 84.1297 135.495 84.3911 135.587 84.6028C135.681 84.8144 135.812 84.9742 135.979 85.0822C136.147 85.1901 136.341 85.244 136.561 85.244C136.685 85.244 136.799 85.2278 136.904 85.1951C137.011 85.1624 137.105 85.1148 137.188 85.0523C137.27 84.9884 137.338 84.911 137.392 84.8201C137.447 84.7292 137.486 84.6254 137.507 84.5089L138.44 84.5133C138.416 84.7136 138.356 84.9067 138.259 85.0928C138.164 85.2775 138.036 85.4429 137.874 85.5892C137.713 85.7341 137.521 85.8491 137.298 85.9343C137.077 86.0182 136.826 86.0602 136.546 86.0602C136.157 86.0602 135.809 85.9721 135.502 85.796C135.197 85.6198 134.955 85.3648 134.778 85.031C134.602 84.6972 134.513 84.293 134.513 83.8186C134.513 83.3427 134.603 82.9379 134.782 82.6041C134.961 82.2703 135.204 82.016 135.511 81.8413C135.817 81.6652 136.163 81.5771 136.546 81.5771C136.799 81.5771 137.033 81.6126 137.249 81.6836C137.467 81.7547 137.659 81.8585 137.827 81.9948C137.994 82.1298 138.131 82.2951 138.236 82.4912C138.342 82.6872 138.411 82.9117 138.44 83.1646ZM140.102 86.0005V81.6368H141.025V83.4372H142.897V81.6368H143.818V86.0005H142.897V84.1979H141.025V86.0005H140.102ZM145.578 86.0005V81.6368H148.519V82.3975H146.501V83.4372H148.368V84.1979H146.501V85.2398H148.527V86.0005H145.578ZM154.102 83.1646H153.169C153.152 83.0438 153.117 82.9366 153.065 82.8428C153.012 82.7477 152.945 82.6667 152.862 82.5999C152.78 82.5332 152.685 82.4819 152.577 82.4464C152.47 82.4109 152.355 82.3932 152.23 82.3932C152.004 82.3932 151.807 82.4493 151.639 82.5615C151.472 82.6723 151.342 82.8342 151.249 83.0473C151.157 83.2589 151.111 83.516 151.111 83.8186C151.111 84.1297 151.157 84.3911 151.249 84.6028C151.343 84.8144 151.474 84.9742 151.642 85.0822C151.809 85.1901 152.003 85.244 152.223 85.244C152.347 85.244 152.461 85.2278 152.566 85.1951C152.673 85.1624 152.767 85.1148 152.85 85.0523C152.932 84.9884 153 84.911 153.054 84.8201C153.11 84.7292 153.148 84.6254 153.169 84.5089L154.102 84.5133C154.078 84.7136 154.018 84.9067 153.921 85.0928C153.826 85.2775 153.698 85.4429 153.536 85.5892C153.375 85.7341 153.183 85.8491 152.96 85.9343C152.739 86.0182 152.488 86.0602 152.208 86.0602C151.819 86.0602 151.471 85.9721 151.164 85.796C150.859 85.6198 150.617 85.3648 150.44 85.031C150.264 84.6972 150.176 84.293 150.176 83.8186C150.176 83.3427 150.265 82.9379 150.444 82.6041C150.623 82.2703 150.866 82.016 151.173 81.8413C151.48 81.6652 151.825 81.5771 152.208 81.5771C152.461 81.5771 152.695 81.6126 152.911 81.6836C153.129 81.7547 153.321 81.8585 153.489 81.9948C153.656 82.1298 153.793 82.2951 153.898 82.4912C154.004 82.6872 154.073 82.9117 154.102 83.1646ZM155.764 86.0005V81.6368H156.687V83.5609H156.744L158.314 81.6368H159.42L157.801 83.5907L159.439 86.0005H158.336L157.14 84.2065L156.687 84.7604V86.0005H155.764ZM164.665 83.8186C164.665 84.2944 164.574 84.6993 164.394 85.0331C164.215 85.3669 163.971 85.6219 163.661 85.798C163.353 85.9727 163.006 86.0602 162.621 86.0602C162.233 86.0602 161.885 85.9721 161.577 85.796C161.269 85.6198 161.025 85.3648 160.846 85.031C160.667 84.6972 160.578 84.293 160.578 83.8186C160.578 83.3427 160.667 82.9379 160.846 82.6041C161.025 82.2703 161.269 82.016 161.577 81.8413C161.885 81.6652 162.233 81.5771 162.621 81.5771C163.006 81.5771 163.353 81.6652 163.661 81.8413C163.971 82.016 164.215 82.2703 164.394 82.6041C164.574 82.9379 164.665 83.3427 164.665 83.8186ZM163.729 83.8186C163.729 83.5103 163.683 83.2504 163.591 83.0388C163.5 82.8271 163.371 82.6667 163.205 82.5573C163.039 82.4479 162.844 82.3932 162.621 82.3932C162.398 82.3932 162.204 82.4479 162.037 82.5573C161.871 82.6667 161.742 82.8271 161.65 83.0388C161.559 83.2504 161.513 83.5103 161.513 83.8186C161.513 84.1268 161.559 84.3868 161.65 84.5984C161.742 84.8101 161.871 84.9706 162.037 85.0799C162.204 85.1893 162.398 85.244 162.621 85.244C162.844 85.244 163.039 85.1893 163.205 85.0799C163.371 84.9706 163.5 84.8101 163.591 84.5984C163.683 84.3868 163.729 84.1268 163.729 83.8186ZM169.043 81.6368H169.966V84.4706C169.966 84.7888 169.89 85.0672 169.738 85.3058C169.587 85.5444 169.376 85.7306 169.105 85.8641C168.834 85.9962 168.518 86.0622 168.157 86.0622C167.795 86.0622 167.478 85.9962 167.207 85.8641C166.935 85.7306 166.724 85.5444 166.574 85.3058C166.423 85.0672 166.348 84.7888 166.348 84.4706V81.6368H167.271V84.3917C167.271 84.5579 167.307 84.7058 167.379 84.835C167.453 84.9643 167.557 85.0657 167.69 85.1396C167.824 85.2135 167.979 85.2505 168.157 85.2505C168.336 85.2505 168.491 85.2135 168.624 85.1396C168.757 85.0657 168.86 84.9643 168.933 84.835C169.006 84.7058 169.043 84.5579 169.043 84.3917V81.6368ZM171.559 82.3975V81.6368H175.143V82.3975H173.807V86.0005H172.895V82.3975H171.559Z" fill="black"/>
<path d="M181.5 76.75H91.5C89.7051 76.75 88.25 78.2051 88.25 80V88C88.25 89.7949 89.7051 91.25 91.5 91.25H181.5C183.295 91.25 184.75 89.7949 184.75 88V80C184.75 78.2051 183.295 76.75 181.5 76.75Z" stroke="#21105d" stroke-width="1.5"/>
<path d="M181.5 96.75H91.5C89.7051 96.75 88.25 98.2051 88.25 100V108C88.25 109.795 89.7051 111.25 91.5 111.25H181.5C183.295 111.25 184.75 109.795 184.75 108V100C184.75 98.2051 183.295 96.75 181.5 96.75Z" fill="#E0E0E0"/>
<path d="M111.631 106H110.643L112.149 101.636H113.338L114.842 106H113.854L112.761 102.634H112.727L111.631 106ZM111.57 104.285H113.905V105.005H111.57V104.285ZM117.914 106H116.368V101.636H117.927C118.366 101.636 118.744 101.724 119.061 101.898C119.377 102.072 119.621 102.321 119.792 102.646C119.963 102.972 120.049 103.361 120.049 103.814C120.049 104.268 119.963 104.659 119.792 104.986C119.621 105.312 119.376 105.563 119.056 105.738C118.738 105.913 118.358 106 117.914 106ZM117.29 105.21H117.876C118.149 105.21 118.378 105.161 118.564 105.065C118.752 104.967 118.892 104.815 118.986 104.611C119.081 104.405 119.129 104.139 119.129 103.814C119.129 103.491 119.081 103.228 118.986 103.023C118.892 102.819 118.752 102.668 118.566 102.572C118.38 102.475 118.151 102.427 117.878 102.427H117.29V105.21ZM123.28 106H121.733V101.636H123.292C123.731 101.636 124.109 101.724 124.426 101.898C124.743 102.072 124.986 102.321 125.157 102.646C125.329 102.972 125.415 103.361 125.415 103.814C125.415 104.268 125.329 104.659 125.157 104.986C124.986 105.312 124.741 105.563 124.422 105.738C124.104 105.913 123.723 106 123.28 106ZM122.655 105.21H123.241C123.514 105.21 123.743 105.161 123.93 105.065C124.117 104.967 124.258 104.815 124.351 104.611C124.447 104.405 124.494 104.139 124.494 103.814C124.494 103.491 124.447 103.228 124.351 103.023C124.258 102.819 124.118 102.668 123.932 102.572C123.746 102.475 123.516 102.427 123.243 102.427H122.655V105.21ZM129.32 102.397V101.636H132.904V102.397H131.568V106H130.656V102.397H129.32ZM138.305 103.818C138.305 104.294 138.215 104.699 138.035 105.033C137.856 105.366 137.611 105.621 137.302 105.798C136.993 105.972 136.647 106.06 136.262 106.06C135.874 106.06 135.526 105.972 135.218 105.795C134.91 105.619 134.666 105.364 134.487 105.031C134.308 104.697 134.219 104.293 134.219 103.818C134.219 103.342 134.308 102.938 134.487 102.604C134.666 102.27 134.91 102.016 135.218 101.841C135.526 101.665 135.874 101.577 136.262 101.577C136.647 101.577 136.993 101.665 137.302 101.841C137.611 102.016 137.856 102.27 138.035 102.604C138.215 102.938 138.305 103.342 138.305 103.818ZM137.37 103.818C137.37 103.51 137.324 103.25 137.231 103.038C137.14 102.827 137.012 102.666 136.846 102.557C136.68 102.447 136.485 102.393 136.262 102.393C136.039 102.393 135.844 102.447 135.678 102.557C135.512 102.666 135.383 102.827 135.29 103.038C135.199 103.25 135.154 103.51 135.154 103.818C135.154 104.126 135.199 104.386 135.29 104.598C135.383 104.81 135.512 104.97 135.678 105.08C135.844 105.189 136.039 105.244 136.262 105.244C136.485 105.244 136.68 105.189 136.846 105.08C137.012 104.97 137.14 104.81 137.231 104.598C137.324 104.386 137.37 104.126 137.37 103.818ZM146.227 103.164H145.294C145.277 103.043 145.242 102.936 145.19 102.842C145.137 102.747 145.07 102.666 144.987 102.599C144.905 102.533 144.81 102.482 144.702 102.446C144.595 102.411 144.48 102.393 144.355 102.393C144.129 102.393 143.932 102.449 143.764 102.561C143.597 102.672 143.467 102.834 143.374 103.047C143.282 103.259 143.236 103.516 143.236 103.818C143.236 104.129 143.282 104.391 143.374 104.602C143.468 104.814 143.599 104.974 143.767 105.082C143.934 105.19 144.128 105.244 144.348 105.244C144.472 105.244 144.586 105.227 144.691 105.195C144.798 105.162 144.892 105.114 144.975 105.052C145.057 104.988 145.125 104.911 145.179 104.82C145.235 104.729 145.273 104.625 145.294 104.509L146.227 104.513C146.203 104.713 146.143 104.906 146.046 105.092C145.951 105.277 145.823 105.442 145.661 105.589C145.5 105.734 145.308 105.849 145.085 105.934C144.864 106.018 144.613 106.06 144.333 106.06C143.944 106.06 143.596 105.972 143.289 105.795C142.984 105.619 142.742 105.364 142.565 105.031C142.389 104.697 142.301 104.293 142.301 103.818C142.301 103.342 142.39 102.938 142.569 102.604C142.748 102.27 142.991 102.016 143.298 101.841C143.605 101.665 143.95 101.577 144.333 101.577C144.586 101.577 144.82 101.612 145.036 101.683C145.254 101.754 145.446 101.858 145.614 101.994C145.781 102.129 145.918 102.295 146.023 102.491C146.129 102.687 146.198 102.911 146.227 103.164ZM148.559 106H147.57L149.077 101.636H150.266L151.77 106H150.781L149.688 102.634H149.654L148.559 106ZM148.497 104.285H150.833V105.005H148.497V104.285ZM153.295 106V101.636H155.017C155.346 101.636 155.628 101.695 155.861 101.813C156.095 101.93 156.273 102.095 156.395 102.31C156.519 102.523 156.581 102.773 156.581 103.062C156.581 103.352 156.518 103.601 156.393 103.81C156.268 104.017 156.087 104.176 155.85 104.287C155.614 104.398 155.329 104.453 154.993 104.453H153.841V103.712H154.844C155.02 103.712 155.167 103.687 155.283 103.639C155.4 103.591 155.486 103.518 155.543 103.422C155.601 103.325 155.631 103.205 155.631 103.062C155.631 102.917 155.601 102.795 155.543 102.695C155.486 102.596 155.399 102.521 155.281 102.469C155.165 102.417 155.018 102.391 154.84 102.391H154.218V106H153.295ZM155.652 104.014L156.736 106H155.718L154.657 104.014H155.652ZM158.067 102.397V101.636H161.65V102.397H160.314V106H159.403V102.397H158.067Z" fill="black"/>
<path d="M181.5 96.75H91.5C89.7051 96.75 88.25 98.2051 88.25 100V108C88.25 109.795 89.7051 111.25 91.5 111.25H181.5C183.295 111.25 184.75 109.795 184.75 108V100C184.75 98.2051 183.295 96.75 181.5 96.75Z" stroke="#9E9E9E" stroke-width="1.5"/>
</g>
<defs>
<clipPath id="clip0_509_189">
<rect width="197" height="126" fill="white" transform="translate(0.5)"/>
</clipPath>
</defs>
</svg>
