<svg width="184" height="126" viewBox="0 0 184 126" fill="none" xmlns="http://www.w3.org/2000/svg">
<path d="M178.396 0H5.60406C2.50902 0 0 2.68629 0 6V120C0 123.314 2.50902 126 5.60406 126H178.396C181.491 126 184 123.314 184 120V6C184 2.68629 181.491 0 178.396 0Z" fill="#EEEEEE"/>
<path d="M0 6C0 2.68629 2.50902 0 5.60406 0H178.396C181.491 0 184 2.68629 184 6V20H0V6Z" fill="#BDBDBD"/>
<path fill-rule="evenodd" clip-rule="evenodd" d="M9.80712 14C11.6126 14 13.0762 12.433 13.0762 10.5C13.0762 8.567 11.6126 7 9.80712 7C8.00168 7 6.53809 8.567 6.53809 10.5C6.53809 12.433 8.00168 14 9.80712 14ZM19.1472 14C20.9527 14 22.4163 12.433 22.4163 10.5C22.4163 8.567 20.9527 7 19.1472 7C17.3418 7 15.8782 8.567 15.8782 10.5C15.8782 12.433 17.3418 14 19.1472 14ZM31.7564 10.5C31.7564 12.433 30.2928 14 28.4873 14C26.6819 14 25.2183 12.433 25.2183 10.5C25.2183 8.567 26.6819 7 28.4873 7C30.2928 7 31.7564 8.567 31.7564 10.5Z" fill="#EEEEEE"/>
<path d="M66.3147 32H14.9442C12.8808 32 11.2081 33.7909 11.2081 36V110C11.2081 112.209 12.8808 114 14.9442 114H66.3147C68.3781 114 70.0508 112.209 70.0508 110V36C70.0508 33.7909 68.3781 32 66.3147 32Z" fill="#9E9E9E" fill-opacity="0.32"/>
<path fill-rule="evenodd" clip-rule="evenodd" d="M50.1914 65.9977C50.1914 64.8377 49.272 63.8887 48.1483 63.8887H33.8462C32.7225 63.8887 31.8031 64.8377 31.8031 65.9977V80.7611C31.8031 81.9211 32.7225 82.8702 33.8462 82.8702H48.1483C49.272 82.8702 50.1914 81.9211 50.1914 80.7611V65.9977ZM37.4217 74.9612L39.9757 78.1353L43.5512 73.3794L48.1483 79.7066H33.8462L37.4217 74.9612Z" fill="#EEEEEE"/>
<path fill-rule="evenodd" clip-rule="evenodd" d="M81.2589 36C81.2589 34.8954 82.0952 34 83.1269 34H137.3C138.332 34 139.168 34.8954 139.168 36V40C139.168 41.1046 138.332 42 137.3 42H83.1269C82.0952 42 81.2589 41.1046 81.2589 40V36Z" fill="#BDBDBD"/>
<path d="M168.122 47H83.1269C82.0953 47 81.2589 47.8954 81.2589 49V53C81.2589 54.1046 82.0953 55 83.1269 55H168.122C169.154 55 169.99 54.1046 169.99 53V49C169.99 47.8954 169.154 47 168.122 47Z" fill="#E0E0E0"/>
<path d="M155.98 60H83.1269C82.0953 60 81.2589 60.8954 81.2589 62V66C81.2589 67.1046 82.0953 68 83.1269 68H155.98C157.011 68 157.848 67.1046 157.848 66V62C157.848 60.8954 157.011 60 155.98 60Z" fill="#E0E0E0"/>
<path d="M169.056 76.75H84.9949C83.3184 76.75 81.9594 78.2051 81.9594 80V88C81.9594 89.7949 83.3184 91.25 84.9949 91.25H169.056C170.732 91.25 172.091 89.7949 172.091 88V80C172.091 78.2051 170.732 76.75 169.056 76.75Z" fill="#E0E0E0"/>
<path d="M103.797 86.0005H102.875L104.281 81.6368H105.392L106.797 86.0005H105.874L104.853 82.6339H104.821L103.797 86.0005ZM103.74 84.2852H105.921V85.0054H103.74V84.2852ZM109.666 86.0005H108.222V81.6368H109.678C110.088 81.6368 110.441 81.7241 110.737 81.8988C111.032 82.0721 111.26 82.3215 111.42 82.6468C111.58 82.9721 111.66 83.3613 111.66 83.8144C111.66 84.269 111.58 84.6596 111.42 84.9863C111.26 85.313 111.031 85.5636 110.732 85.7383C110.435 85.913 110.081 86.0005 109.666 86.0005ZM109.083 85.21H109.63C109.885 85.21 110.099 85.1616 110.273 85.065C110.449 84.967 110.579 84.8158 110.667 84.6113C110.756 84.4053 110.801 84.1397 110.801 83.8144C110.801 83.492 110.756 83.2284 110.667 83.0238C110.579 82.8193 110.449 82.6688 110.275 82.5722C110.101 82.4756 109.887 82.4273 109.632 82.4273H109.083V85.21ZM114.678 86.0005H113.233V81.6368H114.689C115.099 81.6368 115.452 81.7241 115.748 81.8988C116.044 82.0721 116.271 82.3215 116.431 82.6468C116.592 82.9721 116.672 83.3613 116.672 83.8144C116.672 84.269 116.592 84.6596 116.431 84.9863C116.271 85.313 116.042 85.5636 115.744 85.7383C115.447 85.913 115.091 86.0005 114.678 86.0005ZM114.094 85.21H114.641C114.896 85.21 115.11 85.1616 115.285 85.065C115.459 84.967 115.591 84.8158 115.678 84.6113C115.768 84.4053 115.812 84.1397 115.812 83.8144C115.812 83.492 115.768 83.2284 115.678 83.0238C115.591 82.8193 115.46 82.6688 115.287 82.5722C115.113 82.4756 114.898 82.4273 114.643 82.4273H114.094V85.21ZM120.319 82.3975V81.6368H123.667V82.3975H122.419V86.0005H121.567V82.3975H120.319ZM128.711 83.8186C128.711 84.2944 128.627 84.6993 128.459 85.0331C128.292 85.3669 128.063 85.6219 127.774 85.798C127.486 85.9727 127.163 86.0602 126.803 86.0602C126.441 86.0602 126.116 85.9721 125.828 85.796C125.54 85.6198 125.312 85.3648 125.145 85.031C124.978 84.6972 124.895 84.293 124.895 83.8186C124.895 83.3427 124.978 82.9379 125.145 82.6041C125.312 82.2703 125.54 82.016 125.828 81.8413C126.116 81.6652 126.441 81.5771 126.803 81.5771C127.163 81.5771 127.486 81.6652 127.774 81.8413C128.063 82.016 128.292 82.2703 128.459 82.6041C128.627 82.9379 128.711 83.3427 128.711 83.8186ZM127.838 83.8186C127.838 83.5103 127.795 83.2504 127.708 83.0388C127.623 82.8271 127.504 82.6667 127.348 82.5573C127.193 82.4479 127.011 82.3932 126.803 82.3932C126.595 82.3932 126.413 82.4479 126.258 82.5573C126.103 82.6667 125.982 82.8271 125.895 83.0388C125.81 83.2504 125.768 83.5103 125.768 83.8186C125.768 84.1268 125.81 84.3868 125.895 84.5984C125.982 84.8101 126.103 84.9706 126.258 85.0799C126.413 85.1893 126.595 85.244 126.803 85.244C127.011 85.244 127.193 85.1893 127.348 85.0799C127.504 84.9706 127.623 84.8101 127.708 84.5984C127.795 84.3868 127.838 84.1268 127.838 83.8186ZM136.11 83.1646H135.239C135.223 83.0438 135.19 82.9366 135.142 82.8428C135.092 82.7477 135.03 82.6667 134.952 82.5999C134.876 82.5332 134.787 82.4819 134.686 82.4464C134.586 82.4109 134.479 82.3932 134.362 82.3932C134.151 82.3932 133.967 82.4493 133.81 82.5615C133.654 82.6723 133.533 82.8342 133.446 83.0473C133.36 83.2589 133.317 83.516 133.317 83.8186C133.317 84.1297 133.36 84.3911 133.446 84.6028C133.534 84.8144 133.656 84.9742 133.813 85.0822C133.969 85.1901 134.15 85.244 134.355 85.244C134.471 85.244 134.578 85.2278 134.676 85.1951C134.776 85.1624 134.864 85.1148 134.941 85.0523C135.018 84.9884 135.081 84.911 135.132 84.8201C135.184 84.7292 135.219 84.6254 135.239 84.5089L136.11 84.5133C136.088 84.7136 136.032 84.9067 135.941 85.0928C135.853 85.2775 135.733 85.4429 135.582 85.5892C135.431 85.7341 135.252 85.8491 135.044 85.9343C134.837 86.0182 134.603 86.0602 134.341 86.0602C133.978 86.0602 133.653 85.9721 133.366 85.796C133.081 85.6198 132.855 85.3648 132.69 85.031C132.526 84.6972 132.444 84.293 132.444 83.8186C132.444 83.3427 132.527 82.9379 132.694 82.6041C132.861 82.2703 133.088 82.016 133.375 81.8413C133.661 81.6652 133.984 81.5771 134.341 81.5771C134.578 81.5771 134.796 81.6126 134.998 81.6836C135.202 81.7547 135.381 81.8585 135.538 81.9948C135.694 82.1298 135.822 82.2951 135.92 82.4912C136.019 82.6872 136.083 82.9117 136.11 83.1646ZM138.289 86.0005H137.365L138.772 81.6368H139.883L141.288 86.0005H140.364L139.343 82.6339H139.311L138.289 86.0005ZM138.231 84.2852H140.412V85.0054H138.231V84.2852ZM142.712 86.0005V81.6368H144.32C144.628 81.6368 144.891 81.6958 145.109 81.8137C145.327 81.9302 145.494 82.0957 145.607 82.3102C145.723 82.5232 145.781 82.7738 145.781 83.0622C145.781 83.352 145.722 83.6014 145.606 83.8102C145.489 84.0175 145.32 84.1766 145.098 84.2874C144.878 84.3982 144.612 84.4536 144.298 84.4536H143.222V83.7121H144.159C144.323 83.7121 144.461 83.6879 144.569 83.6396C144.678 83.5913 144.758 83.5189 144.812 83.4223C144.866 83.3257 144.894 83.2057 144.894 83.0622C144.894 82.9173 144.866 82.7951 144.812 82.6957C144.758 82.5963 144.677 82.521 144.567 82.4699C144.459 82.4173 144.321 82.3911 144.155 82.3911H143.574V86.0005H142.712ZM144.913 84.0146L145.926 86.0005H144.975L143.984 84.0146H144.913ZM147.169 82.3975V81.6368H150.516V82.3975H149.268V86.0005H148.417V82.3975H147.169Z" fill="black"/>
<path d="M169.056 76.75H84.9949C83.3184 76.75 81.9594 78.2051 81.9594 80V88C81.9594 89.7949 83.3184 91.25 84.9949 91.25H169.056C170.732 91.25 172.091 89.7949 172.091 88V80C172.091 78.2051 170.732 76.75 169.056 76.75Z" stroke="#9E9E9E" stroke-width="1.5"/>
<path d="M169.056 96.75H84.9949C83.3184 96.75 81.9594 98.2051 81.9594 100V108C81.9594 109.795 83.3184 111.25 84.9949 111.25H169.056C170.732 111.25 172.091 109.795 172.091 108V100C172.091 98.2051 170.732 96.75 169.056 96.75Z" fill="#e1d3f8"/>
<path d="M90.9532 106V101.636H93.6999V102.397H91.8149V103.437H93.5579V104.197H91.8149V105.239H93.7074V106H90.9532ZM96.1264 101.636L96.9484 103.124H96.9801L97.8058 101.636H98.779L97.5359 103.818L98.8071 106H97.8161L96.9801 104.511H96.9484L96.1124 106H95.1252L96.401 103.818L95.1495 101.636H96.1264ZM100.259 106V101.636H101.867C102.176 101.636 102.439 101.7 102.657 101.826C102.875 101.951 103.04 102.125 103.154 102.348C103.27 102.57 103.328 102.825 103.328 103.115C103.328 103.405 103.269 103.661 103.152 103.882C103.035 104.104 102.866 104.276 102.645 104.4C102.424 104.523 102.158 104.585 101.844 104.585H100.82V103.846H101.705C101.872 103.846 102.008 103.815 102.115 103.754C102.225 103.692 102.305 103.606 102.358 103.496C102.412 103.386 102.439 103.259 102.439 103.115C102.439 102.97 102.412 102.844 102.358 102.736C102.305 102.626 102.225 102.542 102.115 102.482C102.007 102.421 101.869 102.391 101.702 102.391H101.121V106H100.259ZM104.821 106V101.636H106.43C106.737 101.636 106.999 101.695 107.217 101.813C107.436 101.93 107.603 102.095 107.717 102.31C107.832 102.523 107.889 102.773 107.889 103.062C107.889 103.352 107.831 103.601 107.715 103.81C107.598 104.017 107.429 104.176 107.208 104.287C106.987 104.398 106.72 104.453 106.407 104.453H105.33V103.712H106.268C106.432 103.712 106.569 103.687 106.678 103.639C106.786 103.591 106.868 103.518 106.921 103.422C106.975 103.325 107.002 103.205 107.002 103.062C107.002 102.917 106.975 102.795 106.921 102.695C106.868 102.596 106.786 102.521 106.676 102.469C106.567 102.417 106.43 102.391 106.264 102.391H105.683V106H104.821ZM107.022 104.014L108.035 106H107.084L106.092 104.014H107.022ZM109.432 106V101.636H112.179V102.397H110.294V103.437H112.037V104.197H110.294V105.239H112.187V106H109.432ZM116.009 102.891C115.993 102.719 115.925 102.586 115.804 102.491C115.684 102.396 115.519 102.348 115.313 102.348C115.172 102.348 115.053 102.369 114.956 102.412C114.86 102.453 114.785 102.511 114.734 102.585C114.683 102.658 114.658 102.742 114.658 102.836C114.655 102.914 114.67 102.982 114.704 103.04C114.738 103.099 114.785 103.149 114.845 103.192C114.905 103.233 114.974 103.269 115.052 103.3C115.13 103.33 115.214 103.356 115.303 103.377L115.669 103.471C115.846 103.513 116.01 103.57 116.158 103.641C116.307 103.712 116.436 103.8 116.545 103.903C116.653 104.007 116.737 104.129 116.797 104.27C116.859 104.411 116.889 104.572 116.89 104.754C116.889 105.021 116.826 105.252 116.7 105.448C116.575 105.643 116.394 105.794 116.158 105.902C115.924 106.009 115.641 106.062 115.308 106.062C114.979 106.062 114.693 106.008 114.449 105.9C114.206 105.792 114.016 105.632 113.88 105.42C113.745 105.207 113.674 104.944 113.667 104.63H114.5C114.51 104.776 114.549 104.898 114.618 104.996C114.688 105.093 114.782 105.166 114.899 105.216C115.017 105.264 115.15 105.288 115.299 105.288C115.445 105.288 115.572 105.266 115.679 105.22C115.787 105.175 115.871 105.112 115.931 105.031C115.991 104.95 116.021 104.857 116.021 104.751C116.021 104.653 115.994 104.571 115.94 104.504C115.886 104.437 115.808 104.381 115.704 104.334C115.602 104.287 115.477 104.244 115.329 104.206L114.885 104.087C114.541 103.997 114.27 103.857 114.071 103.667C113.872 103.477 113.773 103.22 113.775 102.898C113.773 102.634 113.839 102.403 113.972 102.205C114.105 102.008 114.289 101.854 114.523 101.743C114.756 101.632 115.021 101.577 115.318 101.577C115.621 101.577 115.885 101.632 116.111 101.743C116.337 101.854 116.514 102.008 116.64 102.205C116.766 102.403 116.831 102.631 116.835 102.891H116.009ZM120.615 102.891C120.599 102.719 120.531 102.586 120.411 102.491C120.289 102.396 120.126 102.348 119.918 102.348C119.778 102.348 119.66 102.369 119.563 102.412C119.465 102.453 119.392 102.511 119.339 102.585C119.289 102.658 119.264 102.742 119.264 102.836C119.262 102.914 119.277 102.982 119.31 103.04C119.344 103.099 119.392 103.149 119.451 103.192C119.511 103.233 119.579 103.269 119.658 103.3C119.736 103.33 119.82 103.356 119.909 103.377L120.275 103.471C120.453 103.513 120.616 103.57 120.765 103.641C120.913 103.712 121.042 103.8 121.15 103.903C121.26 104.007 121.344 104.129 121.404 104.27C121.464 104.411 121.496 104.572 121.497 104.754C121.496 105.021 121.432 105.252 121.305 105.448C121.181 105.643 121.001 105.794 120.765 105.902C120.529 106.009 120.246 106.062 119.915 106.062C119.586 106.062 119.299 106.008 119.055 105.9C118.813 105.792 118.623 105.632 118.486 105.42C118.35 105.207 118.279 104.944 118.273 104.63H119.107C119.116 104.776 119.155 104.898 119.225 104.996C119.295 105.093 119.388 105.166 119.505 105.216C119.623 105.264 119.756 105.288 119.904 105.288C120.051 105.288 120.177 105.266 120.285 105.22C120.394 105.175 120.478 105.112 120.538 105.031C120.598 104.95 120.627 104.857 120.627 104.751C120.627 104.653 120.6 104.571 120.545 104.504C120.493 104.437 120.414 104.381 120.311 104.334C120.209 104.287 120.083 104.244 119.934 104.206L119.491 104.087C119.147 103.997 118.876 103.857 118.677 103.667C118.478 103.477 118.379 103.22 118.38 102.898C118.379 102.634 118.445 102.403 118.577 102.205C118.712 102.008 118.895 101.854 119.128 101.743C119.362 101.632 119.628 101.577 119.925 101.577C120.228 101.577 120.491 101.632 120.717 101.743C120.944 101.854 121.121 102.008 121.246 102.205C121.372 102.403 121.437 102.631 121.441 102.891H120.615ZM128.837 103.164H127.966C127.95 103.043 127.917 102.936 127.869 102.842C127.819 102.747 127.757 102.666 127.679 102.599C127.603 102.533 127.514 102.482 127.413 102.446C127.313 102.411 127.205 102.393 127.088 102.393C126.878 102.393 126.694 102.449 126.537 102.561C126.381 102.672 126.259 102.834 126.173 103.047C126.087 103.259 126.044 103.516 126.044 103.818C126.044 104.129 126.087 104.391 126.173 104.602C126.26 104.814 126.383 104.974 126.539 105.082C126.696 105.19 126.877 105.244 127.082 105.244C127.198 105.244 127.305 105.227 127.403 105.195C127.503 105.162 127.59 105.114 127.668 105.052C127.745 104.988 127.808 104.911 127.859 104.82C127.91 104.729 127.946 104.625 127.966 104.509L128.837 104.513C128.815 104.713 128.759 104.906 128.668 105.092C128.58 105.277 128.46 105.442 128.309 105.589C128.158 105.734 127.979 105.849 127.771 105.934C127.564 106.018 127.33 106.06 127.068 106.06C126.705 106.06 126.38 105.972 126.093 105.795C125.808 105.619 125.582 105.364 125.417 105.031C125.253 104.697 125.169 104.293 125.169 103.818C125.169 103.342 125.254 102.938 125.421 102.604C125.588 102.27 125.815 102.016 126.102 101.841C126.387 101.665 126.711 101.577 127.068 101.577C127.305 101.577 127.523 101.612 127.725 101.683C127.929 101.754 128.108 101.858 128.265 101.994C128.421 102.129 128.549 102.295 128.647 102.491C128.746 102.687 128.81 102.911 128.837 103.164ZM130.39 106V101.636H131.252V103.437H133V101.636H133.86V106H133V104.197H131.252V106H130.39ZM135.504 106V101.636H138.251V102.397H136.366V103.437H138.11V104.197H136.366V105.239H138.259V106H135.504ZM143.466 103.164H142.594C142.579 103.043 142.546 102.936 142.497 102.842C142.448 102.747 142.385 102.666 142.308 102.599C142.231 102.533 142.142 102.482 142.041 102.446C141.942 102.411 141.834 102.393 141.717 102.393C141.506 102.393 141.322 102.449 141.165 102.561C141.009 102.672 140.888 102.834 140.801 103.047C140.715 103.259 140.672 103.516 140.672 103.818C140.672 104.129 140.715 104.391 140.801 104.602C140.889 104.814 141.011 104.974 141.168 105.082C141.324 105.19 141.505 105.244 141.711 105.244C141.827 105.244 141.933 105.227 142.031 105.195C142.131 105.162 142.219 105.114 142.296 105.052C142.373 104.988 142.437 104.911 142.487 104.82C142.539 104.729 142.575 104.625 142.594 104.509L143.466 104.513C143.443 104.713 143.387 104.906 143.297 105.092C143.208 105.277 143.088 105.442 142.937 105.589C142.787 105.734 142.607 105.849 142.399 105.934C142.193 106.018 141.958 106.06 141.697 106.06C141.333 106.06 141.008 105.972 140.722 105.795C140.437 105.619 140.211 105.364 140.045 105.031C139.881 104.697 139.799 104.293 139.799 103.818C139.799 103.342 139.882 102.938 140.049 102.604C140.216 102.27 140.443 102.016 140.73 101.841C141.017 101.665 141.339 101.577 141.697 101.577C141.933 101.577 142.152 101.612 142.353 101.683C142.557 101.754 142.736 101.858 142.893 101.994C143.049 102.129 143.177 102.295 143.275 102.491C143.374 102.687 143.439 102.911 143.466 103.164ZM145.018 106V101.636H145.88V103.56H145.933L147.4 101.636H148.433L146.921 103.59L148.451 106H147.42L146.303 104.206L145.88 104.76V106H145.018ZM153.332 103.818C153.332 104.294 153.247 104.699 153.079 105.033C152.911 105.366 152.684 105.621 152.394 105.798C152.106 105.972 151.782 106.06 151.423 106.06C151.06 106.06 150.735 105.972 150.448 105.795C150.16 105.619 149.932 105.364 149.765 105.031C149.598 104.697 149.514 104.293 149.514 103.818C149.514 103.342 149.598 102.938 149.765 102.604C149.932 102.27 150.16 102.016 150.448 101.841C150.735 101.665 151.06 101.577 151.423 101.577C151.782 101.577 152.106 101.665 152.394 101.841C152.684 102.016 152.911 102.27 153.079 102.604C153.247 102.938 153.332 103.342 153.332 103.818ZM152.458 103.818C152.458 103.51 152.415 103.25 152.329 103.038C152.244 102.827 152.123 102.666 151.968 102.557C151.813 102.447 151.631 102.393 151.423 102.393C151.214 102.393 151.033 102.447 150.877 102.557C150.722 102.666 150.602 102.827 150.516 103.038C150.431 103.25 150.388 103.51 150.388 103.818C150.388 104.126 150.431 104.386 150.516 104.598C150.602 104.81 150.722 104.97 150.877 105.08C151.033 105.189 151.214 105.244 151.423 105.244C151.631 105.244 151.813 105.189 151.968 105.08C152.123 104.97 152.244 104.81 152.329 104.598C152.415 104.386 152.458 104.126 152.458 103.818ZM157.421 101.636H158.283V104.47C158.283 104.788 158.212 105.067 158.07 105.305C157.929 105.544 157.732 105.73 157.479 105.864C157.226 105.996 156.931 106.062 156.593 106.062C156.255 106.062 155.959 105.996 155.706 105.864C155.452 105.73 155.255 105.544 155.115 105.305C154.974 105.067 154.904 104.788 154.904 104.47V101.636H155.766V104.391C155.766 104.558 155.799 104.705 155.867 104.835C155.936 104.964 156.033 105.065 156.157 105.139C156.282 105.213 156.427 105.25 156.593 105.25C156.761 105.25 156.905 105.213 157.03 105.139C157.154 105.065 157.25 104.964 157.318 104.835C157.386 104.705 157.421 104.558 157.421 104.391V101.636ZM159.771 102.397V101.636H163.118V102.397H161.87V106H161.019V102.397H159.771Z" fill="black"/>
<path d="M169.056 96.75H84.9949C83.3184 96.75 81.9594 98.2051 81.9594 100V108C81.9594 109.795 83.3184 111.25 84.9949 111.25H169.056C170.732 111.25 172.091 109.795 172.091 108V100C172.091 98.2051 170.732 96.75 169.056 96.75Z" stroke="#21105d" stroke-width="1.5"/>
</svg>
