<svg width="48" height="32" viewBox="0 0 48 32" fill="none" xmlns="http://www.w3.org/2000/svg">
<path d="M0 4C0 1.79086 1.79086 0 4 0H44C46.2091 0 48 1.79086 48 4V28C48 30.2091 46.2091 32 44 32H4C1.79086 32 0 30.2091 0 28V4Z" fill="#D4DEF7"/>
<path fill-rule="evenodd" clip-rule="evenodd" d="M20.3607 17.2027H18.6546V16.5332C18.6546 15.6624 19.1521 15.4133 19.5812 15.4133C20.0547 15.4133 20.4236 15.6234 20.4236 15.6234L21.0044 14.296C21.0044 14.296 20.4156 13.9111 19.3454 13.9111C18.1421 13.9111 16.773 14.5895 16.773 16.7185V17.2027H13.9168V16.5332C13.9168 15.6624 14.4143 15.4133 14.8426 15.4133C15.0864 15.4133 15.4145 15.47 15.6859 15.6234L16.2667 14.296C15.9199 14.092 15.3631 13.9111 14.6076 13.9111C13.4043 13.9111 12.0352 14.5895 12.0352 16.7185V17.2027H10.9428V18.6551H12.0352V23.7866H13.9168V18.6551H16.773V23.7866H18.6546V18.6551H20.3607V17.2027ZM6.62293 22.6053C6.12814 22.6053 5.88163 22.3623 5.88163 21.9606C5.88163 21.2176 6.71338 20.9631 8.23145 20.8026C8.23145 21.7966 7.55931 22.6053 6.62293 22.6053ZM7.27733 17.0092C6.19287 17.0092 4.94436 17.5208 4.2669 18.0608L4.88584 19.3634C5.4294 18.866 6.30814 18.4412 7.10087 18.4412C7.8537 18.4412 8.26958 18.6931 8.26958 19.1994C8.26958 19.5417 7.9938 19.7137 7.47241 19.7811C5.52694 20.0347 4 20.5711 4 22.0715C4 23.2606 4.84682 23.9806 6.16981 23.9806C7.11329 23.9806 7.9539 23.4557 8.35381 22.7631V23.7864H10.1131V19.4991C10.1131 17.7283 8.8823 17.0092 7.27733 17.0092ZM24.9445 17.2027V23.7866H26.8279V20.6148C26.8279 19.1065 27.7404 18.664 28.3771 18.664C28.6253 18.664 28.9605 18.7358 29.1822 18.9016L29.5254 17.161C29.2345 17.0368 28.9304 17.0094 28.6812 17.0094C27.7129 17.0094 27.1046 17.4385 26.7029 18.3093V17.2027H24.9445ZM36.128 18.1658C36.5155 17.5983 37.2595 17.0095 38.2553 17.0095C39.4586 17.0095 40.4544 17.7562 40.4544 19.2361V23.7868H38.5727V19.8311C38.5727 18.9594 38.0478 18.5977 37.5503 18.5977C36.9279 18.5977 36.3054 19.1669 36.3054 20.3977V23.7868H34.4237V19.8444C34.4237 18.9461 33.929 18.5977 33.3907 18.5977C32.7957 18.5977 32.1591 19.1802 32.1591 20.3977V23.7868H30.2748V17.2028H32.0899V18.1986C32.4082 17.5628 33.0972 17.0095 34.093 17.0095C35.0054 17.0095 35.768 17.4325 36.128 18.1658ZM23.364 23.7868H21.4841V17.2029H23.364V23.7868Z" fill="#060809"/>
<path fill-rule="evenodd" clip-rule="evenodd" d="M32.4513 8.01939C27.3686 8.01939 22.8384 11.5477 21.5526 16.0841H23.3952C24.469 12.7057 28.1144 9.74053 32.4513 9.74053C37.7229 9.74053 42.2789 13.7538 42.2789 20.0017C42.2789 21.4045 42.0971 22.669 41.7531 23.7862H43.5407L43.5584 23.725C43.8511 22.5723 44 21.3203 44 20.0017C44 13.0338 38.9226 8.01939 32.4513 8.01939Z" fill="#4A4AF4"/>
<path d="M4 1H44V-1H4V1ZM47 4V28H49V4H47ZM44 31H4V33H44V31ZM1 28V4H-1V28H1ZM4 31C2.34315 31 1 29.6569 1 28H-1C-1 30.7614 1.23858 33 4 33V31ZM47 28C47 29.6569 45.6569 31 44 31V33C46.7614 33 49 30.7614 49 28H47ZM44 1C45.6569 1 47 2.34315 47 4H49C49 1.23858 46.7614 -1 44 -1V1ZM4 -1C1.23858 -1 -1 1.23858 -1 4H1C1 2.34315 2.34315 1 4 1V-1Z" fill="#E0E0E0"/>
</svg>
