<svg width="126" height="64" viewBox="0 0 126 64" fill="none" xmlns="http://www.w3.org/2000/svg">
<rect x="0.5" y="0.5" width="124.007" height="63" rx="3.5" fill="#FAFAFA"/>
<path fill-rule="evenodd" clip-rule="evenodd" d="M73.6971 43.8974C68.3125 47.8788 60.4803 50 53.7251 50C44.2612 50 35.7764 46.5082 29.3148 40.6993C28.8253 40.2424 29.2496 39.6224 29.8696 39.9814C36.8207 44.028 45.4034 46.4429 54.2799 46.4429C60.2519 46.4429 66.844 45.2028 72.9139 42.6247C73.8277 42.2657 74.5782 43.2448 73.6971 43.8974Z" fill="#FF9900"/>
<path fill-rule="evenodd" clip-rule="evenodd" d="M75.9485 41.3193C75.2632 40.4382 71.3797 40.8951 69.6501 41.1235C69.128 41.1888 69.0301 40.7319 69.5196 40.4056C72.6198 38.2191 77.6781 38.8718 78.2655 39.5897C78.8529 40.3077 78.1023 45.3986 75.1979 47.8135C74.741 48.1725 74.3168 47.9767 74.5126 47.4872C75.1653 45.8555 76.6338 42.2331 75.9485 41.3193Z" fill="#FF9900"/>
<path fill-rule="evenodd" clip-rule="evenodd" d="M69.7483 25.0676V22.9464C69.7483 22.62 69.9767 22.4242 70.2704 22.4242H79.7343C80.028 22.4242 80.2891 22.6527 80.2891 22.9464V24.7413C80.2891 25.035 80.028 25.4266 79.5711 26.0793L74.676 33.0629C76.5035 33.0303 78.4289 33.2914 80.0606 34.2051C80.4196 34.4009 80.5175 34.7273 80.5501 35.021V37.2727C80.5501 37.5991 80.2238 37.958 79.8648 37.7622C76.9604 36.2284 73.0769 36.0653 69.8788 37.7949C69.5525 37.958 69.1935 37.6317 69.1935 37.3054V35.1515C69.1935 34.8252 69.1935 34.2378 69.5525 33.7156L75.2308 25.5897H70.303C70.0093 25.5897 69.7483 25.3613 69.7483 25.0676ZM35.2541 38.2191H32.3823C32.1212 38.1865 31.8928 37.9907 31.8601 37.7296V22.979C31.8601 22.6853 32.1212 22.4569 32.4149 22.4569H35.0909C35.3846 22.4569 35.5804 22.6853 35.6131 22.9464V24.8718H35.6783C36.3636 23.0117 37.7016 22.1305 39.4639 22.1305C41.2587 22.1305 42.4009 23.0117 43.1842 24.8718C43.8695 23.0117 45.4685 22.1305 47.1655 22.1305C48.373 22.1305 49.6783 22.62 50.4942 23.7622C51.4079 25.0023 51.2121 26.7972 51.2121 28.3963V37.7296C51.2121 38.0233 50.9511 38.2517 50.6574 38.2517H47.8182C47.5245 38.2191 47.296 37.9907 47.296 37.7296V29.8974C47.296 29.2774 47.3613 27.7109 47.2308 27.1235C47.0023 26.1445 46.3823 25.8508 45.5338 25.8508C44.8485 25.8508 44.0979 26.3077 43.8042 27.0583C43.5105 27.8089 43.5431 29.0489 43.5431 29.8974V37.7296C43.5431 38.0233 43.2821 38.2517 42.9884 38.2517H40.1166C39.8228 38.2191 39.5944 37.9907 39.5944 37.7296V29.8974C39.5944 28.2657 39.8555 25.8182 37.8322 25.8182C35.7762 25.8182 35.8415 28.1678 35.8415 29.8974V37.7296C35.8089 37.9907 35.5804 38.2191 35.2541 38.2191ZM88.4476 22.1305C92.7226 22.1305 95.0396 25.7855 95.0396 30.4522C95.0396 34.9557 92.4942 38.5455 88.4476 38.5455C84.2704 38.5455 81.986 34.8904 81.986 30.3217C81.9534 25.7203 84.2704 22.1305 88.4476 22.1305ZM88.4476 25.1655C86.3264 25.1655 86.1958 28.0699 86.1958 29.8648C86.1958 31.6597 86.1632 35.5105 88.4149 35.5105C90.634 35.5105 90.7646 32.4103 90.7646 30.5175C90.7646 29.2774 90.6993 27.7762 90.3403 26.6014C90.014 25.5571 89.3613 25.1655 88.4476 25.1655ZM100.555 38.2191H97.683C97.3893 38.1865 97.1609 37.958 97.1609 37.697V22.9137C97.1935 22.6527 97.4219 22.4242 97.7156 22.4242H100.392C100.653 22.4242 100.849 22.62 100.914 22.8485V25.1002H100.979C101.795 23.0769 102.904 22.1305 104.895 22.1305C106.168 22.1305 107.441 22.5874 108.256 23.8601C109.007 25.035 109.007 27.0256 109.007 28.4615V37.7622C108.974 38.0233 108.746 38.2191 108.452 38.2191H105.58C105.319 38.1865 105.091 37.9907 105.058 37.7622V29.7343C105.058 28.1026 105.254 25.7529 103.263 25.7529C102.578 25.7529 101.925 26.2098 101.599 26.9277C101.207 27.8415 101.142 28.7226 101.142 29.7343V37.697C101.11 37.9907 100.849 38.2191 100.555 38.2191ZM62.2098 31.1702C62.2098 32.2797 62.2424 33.2261 61.6877 34.2378C61.2308 35.0536 60.5128 35.5431 59.697 35.5431C58.5874 35.5431 57.9347 34.6946 57.9347 33.4545C57.9347 31.007 60.1212 30.5501 62.2098 30.5501V31.1702ZM65.1142 38.1865C64.9184 38.3497 64.6574 38.3823 64.4289 38.2517C63.4825 37.4685 63.2867 37.0769 62.7646 36.3263C61.1981 37.9254 60.056 38.4149 58.0326 38.4149C55.6177 38.4149 53.725 36.9138 53.725 33.9441C53.725 31.5944 54.9977 30.028 56.7925 29.2447C58.359 28.5594 60.5455 28.4289 62.2098 28.2331V27.8741C62.2098 27.1888 62.2751 26.373 61.8508 25.7856C61.4919 25.2634 60.8392 25.035 60.2518 25.035C59.1422 25.035 58.1632 25.5897 57.9347 26.7646C57.8695 27.0256 57.7063 27.2867 57.4452 27.2867L54.6713 26.993C54.4429 26.9277 54.1818 26.7646 54.2471 26.4056C54.8998 23.0117 57.9347 22 60.676 22C62.0793 22 63.9068 22.359 65.0163 23.4359C66.4196 24.7413 66.2891 26.5035 66.2891 28.3963V32.8671C66.2891 34.2051 66.8438 34.7925 67.366 35.5431C67.5618 35.8042 67.5944 36.1305 67.366 36.2937C66.7459 36.7832 65.7016 37.697 65.1142 38.1865ZM24.5175 31.1702C24.5175 32.2797 24.5501 33.2261 23.9953 34.2378C23.5385 35.0536 22.8205 35.5431 22.0047 35.5431C20.8951 35.5431 20.2424 34.6946 20.2424 33.4545C20.2424 31.007 22.4289 30.5501 24.5175 30.5501V31.1702ZM27.3893 38.1865C27.1935 38.3497 26.9324 38.3823 26.704 38.2517C25.7576 37.4685 25.5618 37.0769 25.0396 36.3263C23.4732 37.9254 22.331 38.4149 20.3077 38.4149C17.8928 38.4149 16 36.9138 16 33.9441C16 31.5944 17.2727 30.028 19.0676 29.2447C20.634 28.5594 22.8205 28.4289 24.4849 28.2331V27.8741C24.4849 27.1888 24.5501 26.373 24.1259 25.7856C23.7669 25.2634 23.1142 25.035 22.5268 25.035C21.4173 25.035 20.4382 25.5897 20.2098 26.7646C20.1445 27.0256 19.9814 27.2867 19.7203 27.2867L16.9464 26.993C16.7179 26.9277 16.4569 26.7646 16.5221 26.4056C17.1748 23.0117 20.2098 22 22.9511 22C24.3543 22 26.1818 22.359 27.2914 23.4359C28.6946 24.7413 28.5641 26.5035 28.5641 28.3963V32.8671C28.5641 34.2051 29.1189 34.7925 29.641 35.5431C29.8368 35.8042 29.8695 36.1305 29.641 36.2937C29.021 36.7832 27.9767 37.697 27.3893 38.1865Z" fill="black"/>
<rect x="0.5" y="0.5" width="124.007" height="63" rx="3.5" stroke="#E0E0E0"/>
</svg>
