<svg width="32" height="32" viewBox="0 0 32 32" fill="none" xmlns="http://www.w3.org/2000/svg">
<path d="M28.5167 13.4595H27.0211H20.1061H18.6105L17.6028 14.5941L14.3298 18.2757L13.3221 19.4104H11.8264H5.0424H3.54674L4.53856 18.2599L5.00669 17.7164L5.99851 16.5658H4.50285H2.57476H1.49566C0.674436 16.5658 0 17.2562 0 18.1012V21.0647V21.3385C0 22.1835 0.674436 22.8738 1.49566 22.8738H1.91619H17.6147H18.7414C19.5626 22.8738 20.6893 22.362 21.2408 21.7352L23.8512 18.7677L28.5167 13.4595Z" fill="#005697"/>
<path d="M30.5043 10C31.3255 10 32 10.6903 32 11.5353V14.7726C32 15.6177 31.3255 16.308 30.5043 16.308H29.691H27.509H26.0133L27.0131 15.1694L27.509 14.606L28.5088 13.4674H18.6064L13.322 19.4143H3.48718L10.541 11.4362L10.8068 11.1346C11.3582 10.5078 12.485 10 13.3101 10H13.6593H30.5043Z" fill="#FBD500"/>
</svg>
