<svg width="32" height="32" viewBox="0 0 32 32" fill="none" xmlns="http://www.w3.org/2000/svg">
<g clip-path="url(#clip0_1019_727)">
<path d="M31.7502 3.00001V29C31.7502 29.9614 31.51 30.6366 31.0733 31.0732C30.6367 31.5098 29.9614 31.75 28.9999 31.75L3 31.7503C2.03856 31.7503 1.36336 31.5101 0.926764 31.0734C0.490158 30.6367 0.24995 29.9615 0.24995 29V2.99996C0.249973 2.03852 0.490181 1.36335 0.926767 0.926785C1.36335 0.49022 2.03853 0.250041 2.99999 0.250079L28.9999 0.25C28.9999 0.25 28.9999 0.25 28.9999 0.25C29.9614 0.25004 30.6366 0.490237 31.0733 0.926814C31.5099 1.36339 31.7501 2.03854 31.7502 2.99998C31.7502 2.99999 31.7502 3 31.7502 3.00001Z" fill="white" stroke="#BDBDBD" stroke-width="0.5"/>
<path d="M13.2929 18.6241H9.16166C8.94017 18.6325 8.71925 18.5963 8.51201 18.5177C8.30477 18.4391 8.11544 18.3197 7.95526 18.1665C7.85758 18.0606 7.76571 17.9495 7.68006 17.8337L7.69926 17.8049H12.2977C12.2984 17.7931 12.2984 17.7814 12.2977 17.7697C12.2977 17.4241 12.2977 17.0753 12.2785 16.7297C12.2418 16.2854 12.1081 15.8546 11.887 15.4676C11.6658 15.0806 11.3625 14.7468 10.9985 14.4897C10.3997 14.0429 9.66046 13.826 8.91526 13.8785C8.24133 13.9215 7.59869 14.1784 7.08076 14.6118C6.56282 15.0451 6.19658 15.6323 6.03526 16.2881C5.93585 16.7009 5.9196 17.1294 5.98746 17.5485C6.05531 17.9677 6.20591 18.3692 6.43047 18.7295C6.65504 19.0899 6.94909 19.402 7.29547 19.6476C7.64186 19.8932 8.03367 20.0674 8.44806 20.1601C8.69833 20.2139 8.95366 20.2407 9.20966 20.2401C10.5249 20.2401 11.8401 20.2401 13.1553 20.2401H13.2929C13.2641 20.3495 13.2266 20.4565 13.1809 20.5601C13.0813 20.7721 12.9212 20.95 12.7208 21.0713C12.5204 21.1926 12.2885 21.2519 12.0545 21.2417C10.1046 21.2417 8.15472 21.2417 6.20486 21.2417C6.03954 21.2434 5.87556 21.2119 5.72269 21.149C5.56981 21.086 5.43117 20.993 5.31502 20.8753C5.19886 20.7577 5.10758 20.6178 5.04659 20.4642C4.98561 20.3105 4.95618 20.1461 4.96006 19.9809V14.1217C4.95749 13.9604 4.9872 13.8002 5.04744 13.6506C5.10768 13.501 5.19724 13.365 5.31084 13.2505C5.42444 13.136 5.55979 13.0454 5.70892 12.9839C5.85806 12.9225 6.01797 12.8916 6.17926 12.8929H12.0833C12.2439 12.8924 12.403 12.9238 12.5515 12.9851C12.7 13.0463 12.835 13.1364 12.9486 13.25C13.0622 13.3635 13.1522 13.4985 13.2135 13.647C13.2747 13.7955 13.3061 13.9546 13.3057 14.1153C13.3057 15.5873 13.3057 17.0561 13.3057 18.5249C13.2993 18.5601 13.2961 18.5825 13.2929 18.6241Z" fill="#C80370"/>
<path d="M14.1248 20.1599C14.1248 19.1519 14.1248 18.1439 14.1248 17.1359C14.1108 16.5989 14.2365 16.0674 14.4896 15.5935C14.708 15.164 15.0247 14.792 15.4139 14.5078C15.8032 14.2237 16.2539 14.0354 16.7296 13.9583C17.5278 13.8168 18.3498 13.9924 19.0204 14.4478C19.691 14.9033 20.1574 15.6026 20.32 16.3967C20.4984 17.2138 20.3461 18.0683 19.8964 18.7735C19.4467 19.4786 18.7361 19.9771 17.92 20.1599C17.6752 20.2059 17.4267 20.2294 17.1776 20.2303C16.7296 20.2303 16.2784 20.2303 15.8304 20.2303C15.6704 20.2303 15.6704 20.2303 15.6704 20.3935V23.5103C15.6704 23.6383 15.6704 23.6383 15.5456 23.6383C15.1136 23.6383 14.6784 23.6383 14.2464 23.6383C14.1504 23.6383 14.1248 23.6095 14.128 23.5167L14.1248 20.1599ZM16.5312 18.6527H17.2384C17.3273 18.6528 17.4161 18.6464 17.504 18.6335C17.8078 18.5906 18.0928 18.4612 18.3251 18.2609C18.5574 18.0605 18.7272 17.7976 18.8142 17.5035C18.9013 17.2093 18.902 16.8964 18.8162 16.6018C18.7304 16.3073 18.5618 16.0437 18.3303 15.8423C18.0989 15.6409 17.8145 15.5103 17.511 15.4661C17.2074 15.4218 16.8975 15.4657 16.6182 15.5926C16.339 15.7195 16.102 15.924 15.9357 16.1817C15.7693 16.4395 15.6806 16.7396 15.68 17.0463C15.68 17.5455 15.68 18.0479 15.68 18.5471C15.68 18.6271 15.7088 18.6495 15.7856 18.6495L16.5312 18.6527Z" fill="#71706F"/>
<path d="M19.3953 20.224C19.5361 20.128 19.6737 20.048 19.7985 19.952C20.1161 19.6874 20.3763 19.3607 20.5633 18.992C20.6081 18.9208 20.6487 18.8471 20.6849 18.7712C20.7233 18.6656 20.7937 18.64 20.9025 18.6432H24.9985C25.0528 18.6479 25.1074 18.6479 25.1617 18.6432C25.2133 18.6361 25.263 18.6189 25.3079 18.5925C25.3528 18.5661 25.392 18.531 25.4232 18.4894C25.4545 18.4477 25.4772 18.4002 25.4899 18.3497C25.5027 18.2992 25.5053 18.2467 25.4977 18.1952C25.4844 18.0977 25.4375 18.0079 25.365 17.9413C25.2926 17.8747 25.1991 17.8354 25.1009 17.8304H23.0689C22.5646 17.8537 22.0708 17.6814 21.6905 17.3494C21.3102 17.0175 21.0727 16.5514 21.0277 16.0486C20.9828 15.5458 21.1337 15.0451 21.449 14.6508C21.7643 14.2566 22.2197 13.9994 22.7201 13.9328C22.8533 13.9109 22.9882 13.9002 23.1233 13.9008C24.0833 13.9008 25.0689 13.9008 26.0385 13.9008C26.1345 13.9008 26.1569 13.9328 26.1569 14.0224C26.1569 14.4512 26.1569 14.8768 26.1569 15.3024C26.1569 15.392 26.1313 15.4208 26.0417 15.4208C25.0817 15.4208 24.1057 15.4208 23.1361 15.4208C23.0625 15.4189 22.989 15.4286 22.9185 15.4496C22.8195 15.484 22.7365 15.5534 22.6852 15.6448C22.6339 15.7362 22.6178 15.8432 22.6401 15.9456C22.6628 16.0394 22.7173 16.1225 22.7943 16.1808C22.8712 16.2391 22.966 16.269 23.0625 16.2656H25.0465C25.5465 16.2594 26.0303 16.4432 26.4001 16.7799C26.7699 17.1165 26.9981 17.581 27.0388 18.0794C27.0794 18.5779 26.9294 19.0732 26.619 19.4653C26.3086 19.8574 25.8609 20.1171 25.3665 20.192C25.253 20.2075 25.1386 20.215 25.0241 20.2144H19.3953V20.224Z" fill="#71706F"/>
<path d="M7.1201 11.8817H6.6561C6.63263 11.8839 6.60896 11.8812 6.58654 11.8739C6.56412 11.8666 6.54344 11.8548 6.52575 11.8392C6.50807 11.8237 6.49376 11.8046 6.4837 11.7833C6.47365 11.762 6.46807 11.7388 6.4673 11.7153C6.43253 11.277 6.45404 10.8361 6.5313 10.4033C6.6409 9.89776 6.90105 9.43732 7.27749 9.08259C7.65393 8.72786 8.12899 8.49548 8.6401 8.41606C9.16512 8.31425 9.70863 8.37272 10.2 8.58387C10.6913 8.79502 11.1078 9.14909 11.3953 9.60006C11.6486 9.99163 11.7882 10.4458 11.7985 10.9121C11.7985 11.1681 11.7985 11.4241 11.7985 11.6833C11.8022 11.7119 11.7992 11.7409 11.7899 11.7682C11.7806 11.7955 11.7651 11.8203 11.7447 11.8407C11.7243 11.8611 11.6995 11.8765 11.6723 11.8858C11.645 11.8952 11.6159 11.8981 11.5873 11.8945H10.6817C10.6536 11.8975 10.6253 11.8942 10.5986 11.8848C10.572 11.8754 10.5479 11.8602 10.5279 11.8403C10.5079 11.8203 10.4927 11.7961 10.4833 11.7695C10.474 11.7429 10.4707 11.7145 10.4737 11.6865V10.9761C10.4651 10.6504 10.3385 10.339 10.1175 10.0997C9.89653 9.86037 9.59613 9.70947 9.27221 9.67504C8.94828 9.64061 8.62288 9.725 8.35651 9.91252C8.09014 10.1 7.90094 10.3779 7.8241 10.6945C7.80156 10.8308 7.79192 10.9691 7.7953 11.1073C7.7953 11.2897 7.7953 11.4721 7.7953 11.6545C7.7953 11.8369 7.7249 11.8817 7.5681 11.8817H7.1201Z" fill="#C80370"/>
<path d="M10.5599 16.2496H7.67993C7.77273 15.8688 8.48313 15.4048 9.00473 15.3792C9.66073 15.36 10.3903 15.7568 10.5599 16.2496Z" fill="#C80370"/>
</g>
<defs>
<clipPath id="clip0_1019_727">
<rect width="32" height="32" fill="white"/>
</clipPath>
</defs>
</svg>
