<svg width="32" height="32" viewBox="0 0 32 32" fill="none" xmlns="http://www.w3.org/2000/svg">
<path fill-rule="evenodd" clip-rule="evenodd" d="M0 11.469C0 10.1055 1.11108 9 2.48095 9H29.5191C30.8895 9 32 10.1055 32 11.469V20.2922C32 21.6549 30.8895 22.7606 29.5191 22.7606H2.48095C1.11108 22.7606 0 21.6549 0 20.2922V11.469Z" fill="#000268"/>
<path fill-rule="evenodd" clip-rule="evenodd" d="M1.01819 11.5535V20.2086C1.01819 21.0605 1.71268 21.7514 2.56935 21.7514H16.7349V10.0107H2.56935C1.71268 10.0107 1.01819 10.7016 1.01819 11.5535ZM20.395 15.8379C20.395 16.3889 20.1224 16.7676 19.6712 16.7676C19.2725 16.7676 18.9402 16.3889 18.9402 15.8843C18.9402 15.3663 19.2325 14.9812 19.6712 14.9812C20.1364 14.9812 20.395 15.3796 20.395 15.8379ZM17.7455 18.9983H18.9402V17.1191H18.9536C19.1799 17.5309 19.6317 17.6835 20.0499 17.6835C21.0789 17.6835 21.63 16.8338 21.63 15.8112C21.63 14.9748 21.1056 14.0646 20.1491 14.0646C19.6051 14.0646 19.1004 14.2839 18.8607 14.7688H18.8474V14.1449H17.7455V18.9983ZM23.2618 16.5082C23.2618 16.1765 23.5802 16.0508 23.9858 16.0508C24.1649 16.0508 24.3378 16.0634 24.4904 16.0706C24.4904 16.4754 24.2049 16.8872 23.7531 16.8872C23.4742 16.8872 23.2618 16.7479 23.2618 16.5082ZM25.6718 17.604C25.619 17.332 25.6057 17.0593 25.6057 16.7874V15.4992C25.6057 14.4435 24.8424 14.0646 23.9591 14.0646C23.4481 14.0646 23.0032 14.1377 22.5781 14.3106L22.5984 15.121C22.9293 14.9348 23.3152 14.8617 23.7003 14.8617C24.1312 14.8617 24.4833 14.9882 24.4904 15.4597C24.3378 15.433 24.1248 15.4127 23.9324 15.4127C23.2955 15.4127 22.1465 15.5392 22.1465 16.5947C22.1465 17.3454 22.7572 17.6835 23.4411 17.6835C23.9324 17.6835 24.2647 17.4916 24.5368 17.0593H24.5502C24.5502 17.2392 24.5697 17.4177 24.5769 17.604H25.6718ZM26.2095 18.9983C26.4554 19.0518 26.7008 19.0786 26.953 19.0786C28.0488 19.0786 28.3073 18.2351 28.646 17.3651L29.9147 14.1449H28.7191L28.0087 16.4023H27.9954L27.2517 14.1449H25.9641L27.3648 17.6835C27.2784 17.9891 27.0528 18.162 26.7604 18.162C26.5938 18.162 26.4484 18.1417 26.2888 18.0889L26.2095 18.9983Z" fill="white"/>
<path fill-rule="evenodd" clip-rule="evenodd" d="M3.93706 15.8446C3.93706 15.3731 4.16975 14.981 4.61462 14.981C5.15233 14.981 5.37786 15.4125 5.37786 15.7976C5.37786 16.3289 5.03917 16.6873 4.61462 16.6873C4.25622 16.6873 3.93706 16.3823 3.93706 15.8446ZM6.53335 14.1447H5.45097V14.7686H5.43841C5.1854 14.3435 4.7734 14.0644 4.26259 14.0644C3.18717 14.0644 2.70227 14.8354 2.70227 15.8643C2.70227 16.887 3.29336 17.6038 4.24207 17.6038C4.72081 17.6038 5.11926 17.4175 5.40455 17.0127H5.4179V17.199C5.4179 17.8759 5.04615 18.2013 4.35603 18.2013C3.85777 18.2013 3.55196 18.0951 3.18717 17.916L3.12741 18.8591C3.40573 18.9589 3.8773 19.0784 4.44887 19.0784C5.84324 19.0784 6.53335 18.62 6.53335 17.199V14.1447ZM8.55329 12.7039H7.35794V13.5802H8.55329V12.7039ZM7.35854 17.6038H8.55329V14.1447H7.35854V17.6038ZM11.8811 14.1044C11.7616 14.0849 11.6154 14.0644 11.4763 14.0644C10.9583 14.0644 10.6597 14.3435 10.4537 14.782H10.4403V14.1447H9.35158V17.6038H10.5465V16.1435C10.5465 15.4659 10.8591 15.0611 11.4165 15.0611C11.5564 15.0611 11.6885 15.0611 11.8214 15.1003L11.8811 14.1044ZM13.9389 16.8469C13.3879 16.8469 13.1624 16.3887 13.1624 15.8777C13.1624 15.3597 13.3879 14.9015 13.9389 14.9015C14.4906 14.9015 14.7163 15.3597 14.7163 15.8777C14.7163 16.3887 14.4906 16.8469 13.9389 16.8469ZM13.9389 17.6833C15.0811 17.6833 15.9511 17.0199 15.9511 15.8777C15.9511 14.7286 15.0811 14.0644 13.9389 14.0644C12.797 14.0644 11.9276 14.7286 11.9276 15.8777C11.9276 17.0199 12.797 17.6833 13.9389 17.6833Z" fill="#FF0007"/>
</svg>
