<svg width="37" height="32" viewBox="0 0 37 32" fill="none" xmlns="http://www.w3.org/2000/svg">
<g clip-path="url(#clip0_1001_692)">
<path d="M0 2.37213V29.6279C0 30.9325 1.06746 32 2.37213 32H18.6568C30.9681 32 36.3054 25.109 36.3054 15.9644C36.3054 6.86731 30.9681 0 18.6568 0H2.37213C1.06746 0 0 1.06746 0 2.37213Z" fill="white"/>
<path d="M10.8999 6.6893V26.8287H19.6649C27.6234 26.8287 31.0748 22.3335 31.0748 15.9762C31.0748 9.89168 27.6234 5.17114 19.6649 5.17114H12.4181C11.576 5.17114 10.8999 5.85906 10.8999 6.6893Z" fill="#CC0066"/>
<path d="M18.6567 29.8295H4.49514C3.23791 29.8295 2.2179 28.8095 2.2179 27.5523V4.45962C2.2179 3.20239 3.23791 2.18237 4.49514 2.18237H18.6567C32.0948 2.18237 34.0993 10.8288 34.0993 15.9763C34.0993 24.9074 28.6078 29.8295 18.6567 29.8295ZM4.49514 2.94145C3.65303 2.94145 2.97698 3.61751 2.97698 4.45962V27.5523C2.97698 28.3944 3.65303 29.0704 4.49514 29.0704H18.6567C28.1215 29.0704 33.3402 24.4211 33.3402 15.9763C33.3402 4.63752 24.1364 2.94145 18.6567 2.94145H4.49514V2.94145Z" fill="black"/>
<path d="M13.9837 13.2602C14.292 13.2602 14.5767 13.3076 14.8495 13.4025C15.1223 13.4974 15.3476 13.6516 15.5493 13.8413C15.739 14.043 15.8932 14.292 16.0118 14.5767C16.1186 14.8732 16.1779 15.2172 16.1779 15.6204C16.1779 15.9762 16.1304 16.2965 16.0474 16.593C15.9525 16.8895 15.8221 17.1504 15.6441 17.3639C15.4662 17.5774 15.2409 17.7435 14.9681 17.8739C14.6953 17.9925 14.3751 18.0637 14.0074 18.0637H11.9318V13.2483H13.9837V13.2602ZM13.9125 17.186C14.0667 17.186 14.209 17.1623 14.3632 17.1149C14.5055 17.0674 14.636 16.9844 14.7427 16.8658C14.8495 16.7472 14.9444 16.6049 15.0155 16.4151C15.0867 16.2253 15.1223 16.0118 15.1223 15.739C15.1223 15.5018 15.0986 15.2765 15.0511 15.0867C15.0037 14.8969 14.9206 14.719 14.8139 14.5885C14.7072 14.4581 14.5648 14.3395 14.3869 14.2683C14.209 14.1971 13.9955 14.1616 13.7346 14.1616H12.9755V17.1979H13.9125V17.186Z" fill="white"/>
<path d="M20.4596 13.2602V14.1497H17.9214V15.1816H20.258V16H17.9214V17.1742H20.5189V18.0637H16.8658V13.2483H20.4596V13.2602Z" fill="white"/>
<path d="M24.0889 13.2603L25.8917 18.0757H24.7886L24.421 17.0082H22.6181L22.2386 18.0757H21.1711L22.9858 13.2603H24.0889V13.2603ZM24.1482 16.2136L23.5433 14.4463H23.5314L22.9028 16.2136H24.1482Z" fill="white"/>
<path d="M27.6115 13.2603V17.1861H29.9599V18.0757H26.5559V13.2603H27.6115V13.2603Z" fill="white"/>
<path d="M6.93852 17.8858C8.16345 17.8858 9.15646 16.8928 9.15646 15.6679C9.15646 14.443 8.16345 13.45 6.93852 13.45C5.71359 13.45 4.72058 14.443 4.72058 15.6679C4.72058 16.8928 5.71359 17.8858 6.93852 17.8858Z" fill="black"/>
<path d="M8.61083 26.8287C6.74871 26.8287 5.25427 25.3224 5.25427 23.4722V20.851C5.25427 19.9258 6.00149 19.1667 6.93848 19.1667C7.86361 19.1667 8.62269 19.914 8.62269 20.851V26.8287H8.61083Z" fill="black"/>
</g>
<defs>
<clipPath id="clip0_1001_692">
<rect width="36.3054" height="32" fill="white"/>
</clipPath>
</defs>
</svg>
