<svg width="32" height="32" viewBox="0 0 32 32" fill="none" xmlns="http://www.w3.org/2000/svg">
<g clip-path="url(#clip0_1019_756)">
<path d="M31.7502 3.00001V29C31.7502 29.9614 31.51 30.6366 31.0733 31.0732C30.6367 31.5098 29.9614 31.75 28.9999 31.75L3 31.7503C2.03856 31.7503 1.36336 31.5101 0.926764 31.0734C0.490158 30.6367 0.24995 29.9615 0.24995 29V2.99996C0.249973 2.03852 0.490181 1.36335 0.926767 0.926785C1.36335 0.49022 2.03853 0.250041 2.99999 0.250079L28.9999 0.25C28.9999 0.25 28.9999 0.25 28.9999 0.25C29.9614 0.25004 30.6366 0.490237 31.0733 0.926814C31.5099 1.36339 31.7501 2.03854 31.7502 2.99998C31.7502 2.99999 31.7502 3 31.7502 3.00001Z" fill="white" stroke="#BDBDBD" stroke-width="0.5"/>
<path d="M5.70874 22.2304L7.13594 14.1888H10.8191C11.7279 14.1888 12.3135 14.3616 12.5823 14.7136C12.8511 15.0656 12.9023 15.7152 12.7295 16.6752C12.5567 17.6352 12.2815 18.2208 11.8783 18.5536C11.4751 18.8864 10.8031 19.056 9.85594 19.056H9.50074H7.17754L6.61434 22.224L5.70874 22.2304ZM7.30874 18.2944H9.45914C10.3583 18.2944 10.9503 18.2048 11.2383 18.0192C11.5263 17.8336 11.7247 17.4112 11.8431 16.7392C11.9839 15.9616 11.9839 15.4592 11.8431 15.264C11.7023 15.0688 11.3215 14.944 10.6815 14.944H10.3359H7.90714L7.30874 18.2944Z" fill="#E72242" stroke="#E72242" stroke-width="0.97" stroke-miterlimit="10"/>
<path d="M18.624 21.4785L18.4896 22.2401H12.832L13.0976 20.7361C13.2448 19.8955 13.503 19.3451 13.872 19.0849C14.24 18.8225 15.0432 18.6209 16.2752 18.4833C17.2608 18.3723 17.871 18.2241 18.1056 18.0385C18.3392 17.8497 18.5248 17.3665 18.6624 16.5825C18.784 15.8977 18.752 15.4529 18.5632 15.2481C18.3744 15.0433 17.9008 14.9281 17.1456 14.9281C16.2016 14.9281 15.5936 15.0113 15.3152 15.1777C15.0368 15.3441 14.8448 15.7537 14.72 16.3841L14.6272 16.9793H13.76L13.8368 16.5665C14.0064 15.6065 14.3168 14.9665 14.7712 14.6465C15.2256 14.3265 16.0512 14.1729 17.2384 14.1729C18.3051 14.1729 18.9867 14.3435 19.2832 14.6849C19.5798 15.0262 19.6438 15.695 19.4752 16.6913C19.3088 17.6513 19.024 18.2913 18.6304 18.6113C18.2368 18.9313 17.456 19.1489 16.3008 19.2513C15.2875 19.3537 14.6688 19.4945 14.4448 19.6737C14.2208 19.8529 14.0352 20.3606 13.888 21.1969L13.84 21.4657L18.624 21.4785Z" fill="#A9ABAA" stroke="#A9ABAA" stroke-width="0.97" stroke-miterlimit="10"/>
<path d="M26.0672 14.2625L25.1072 19.6385H26.2816L26.1472 20.4001H24.9856L24.6656 22.2401H23.7728L24.0928 20.4001H19.7024L19.888 19.3409L24.688 14.2625H26.0672ZM24.2336 19.6385L25.0784 14.8385H25.0592L20.5792 19.6385H24.2336Z" fill="#A9ABAA" stroke="#A9ABAA" stroke-width="0.97" stroke-miterlimit="10"/>
<path d="M9.65749 11.232C10.414 10.7913 11.214 10.4299 12.0447 10.1536L11.8943 9.28003C10.8286 9.61381 9.79849 10.0522 8.81909 10.5888L9.65749 11.232Z" fill="#A9ABAA"/>
<path d="M19.1392 10.7616L22.0896 9.16163C20.5552 8.70354 18.9611 8.47704 17.36 8.48963H17.3408L16.6624 9.84323C17.5317 10.0151 18.3679 10.3252 19.1392 10.7616V10.7616Z" fill="#A9ABAA"/>
<path d="M8.06728 11.0367C7.354 11.4634 6.68789 11.9643 6.08008 12.5311H7.72168C8.12168 12.2111 8.51848 11.9391 8.90248 11.6895L8.06728 11.0367Z" fill="#A9ABAA"/>
<path d="M16.3839 8.50244C15.0858 8.56006 13.798 8.76074 12.5439 9.10084L12.6559 9.97444C13.7449 9.68108 14.8795 9.59639 15.9999 9.72484L16.3839 8.50244Z" fill="#A9ABAA"/>
<path d="M23.6801 9.77917L19.8401 11.2C20.03 11.335 20.2107 11.4825 20.3809 11.6416H26.0673C26.0673 11.6416 25.4241 10.6528 23.6801 9.77917Z" fill="#A9ABAA"/>
</g>
<defs>
<clipPath id="clip0_1019_756">
<rect width="32" height="32" fill="white"/>
</clipPath>
</defs>
</svg>
