<svg width="48" height="32" viewBox="0 0 48 32" fill="none" xmlns="http://www.w3.org/2000/svg">
<rect width="48" height="32" rx="4" fill="#2E3235"/>
<path fill-rule="evenodd" clip-rule="evenodd" d="M13.6337 17.1547C12.7848 17.1547 12.1898 16.6033 12.1898 15.7398C12.1898 14.7821 12.9299 13.8896 13.9965 13.8896C14.8454 13.8896 15.4404 14.4701 15.4404 15.3335C15.4476 16.284 14.7003 17.1547 13.6337 17.1547ZM14.1344 12.2353C11.8996 12.2353 10.209 13.8678 10.209 15.8196C10.209 17.59 11.6021 18.809 13.5031 18.809C15.7379 18.809 17.4285 17.1257 17.4285 15.1739C17.4212 13.4107 16.0354 12.2353 14.1344 12.2353Z" fill="#E5E5E0"/>
<path fill-rule="evenodd" clip-rule="evenodd" d="M27.1004 17.1547C26.2515 17.1547 25.6565 16.6033 25.6565 15.7398C25.6565 14.7821 26.3966 13.8896 27.4632 13.8896C28.3121 13.8896 28.9071 14.4701 28.9071 15.3335C28.9071 16.284 28.167 17.1547 27.1004 17.1547ZM27.5938 12.2353C25.359 12.2353 23.6685 13.8678 23.6685 15.8196C23.6685 17.59 25.0616 18.809 26.9626 18.809C29.1974 18.809 30.8879 17.1257 30.8879 15.1739C30.8879 13.4107 29.4948 12.2353 27.5938 12.2353Z" fill="#E5E5E0"/>
<path fill-rule="evenodd" clip-rule="evenodd" d="M34.2838 15.348H33.9936L34.2112 14.0275H34.4724C35.0892 14.0275 35.4229 14.2161 35.4229 14.6152C35.4229 15.1086 34.9513 15.348 34.2838 15.348ZM37.4618 14.3104C37.4618 13.1278 36.5331 12.3659 34.857 12.3659H32.4844L31.4468 18.6784H33.4421L33.7686 16.6903H33.8629L34.9223 18.6784H37.2079L35.7422 16.4727C36.816 16.1026 37.4618 15.2972 37.4618 14.3104Z" fill="#E5E5E0"/>
<path fill-rule="evenodd" clip-rule="evenodd" d="M7.92341 14.8836C7.16881 14.5063 6.99467 14.4048 6.99467 14.2016C6.99467 13.9477 7.29216 13.8243 7.71299 13.8243C8.19187 13.8243 8.92471 13.8751 9.63577 14.5499C9.80991 14.0057 10.1001 13.5196 10.4774 13.0915C9.46889 12.5255 8.54015 12.2353 7.68397 12.2353C5.97887 12.2353 5.00659 13.1423 5.00659 14.2306C5.00659 15.1666 5.71766 15.66 6.56658 16.0881C7.32118 16.4799 7.51709 16.596 7.51709 16.8354C7.51709 17.0894 7.19783 17.2345 6.777 17.2345C6.04417 17.2345 5.2025 16.7774 4.70185 16.313L4.41162 18.0689C4.93404 18.439 5.68138 18.8235 6.80602 18.8235C8.56192 18.8235 9.51242 17.9456 9.51242 16.8137C9.49791 15.8849 8.88843 15.377 7.92341 14.8836Z" fill="#E5E5E0"/>
<path fill-rule="evenodd" clip-rule="evenodd" d="M22.6743 15.1376H20.3379L20.5193 14.0347H23.0226C23.3491 13.3672 23.8497 12.8012 24.4737 12.3732H20.3742C19.4672 12.3732 18.6909 12.9899 18.553 13.8243L17.7549 18.6857H19.7502L20.0767 16.6976H22.4494L22.6235 15.6165C22.6308 15.4569 22.6453 15.2972 22.6743 15.1376Z" fill="#E5E5E0"/>
<path fill-rule="evenodd" clip-rule="evenodd" d="M37.5049 12.3659C38.0346 12.7722 38.3683 13.3382 38.4336 14.0275H40.1024L39.3333 18.6712H41.3287L42.0978 14.0275H43.948L44.2237 12.3659H37.5049Z" fill="#E5E5E0"/>
</svg>
